<?xml version="1.0" standalone="no"?>
<!DOCTYPE svg PUBLIC "-//W3C//DTD SVG 20010904//EN"
 "http://www.w3.org/TR/2001/REC-SVG-20010904/DTD/svg10.dtd">
<svg version="1.0" xmlns="http://www.w3.org/2000/svg"
 x="0" y="0" width="1055" height="641" viewBox="0 0 913.000000 513.000000"
 preserveAspectRatio="xMidYMid meet">

<g transform="translate(0.000000,513.000000) scale(0.100000,-0.100000)"
fill="#000000" stroke="none">
<path d="M0 2575 l0 -2555 1355 0 1355 0 0 1200 0 1200 3200 0 3200 0 0 1355
0 1355 -4555 0 -4555 0 0 -2555z m1600 1850 l0 -695 -795 0 -795 0 0 695 0
695 795 0 795 0 0 -695z m7500 150 l0 -545 -170 0 -170 0 -2 53 -2 52 -3 -52
-4 -53 -45 0 -44 0 -2 53 -2 52 -3 -52 -4 -53 -420 0 -419 0 -2 48 -2 47 -3
-47 -4 -48 -45 0 -44 0 -2 53 -2 52 -3 -52 -4 -53 -1295 0 -1294 0 -2 53 -2
52 -3 -52 -4 -53 -45 0 -44 0 -2 53 -2 52 -3 -52 -4 -53 -1150 0 -1149 0 0
-2000 0 -2000 -545 0 -545 0 0 595 0 595 53 2 52 2 -52 3 -53 4 0 45 0 44 53
2 52 2 -52 3 -53 4 0 345 0 344 53 2 52 2 -52 3 -53 4 0 45 0 44 48 2 47 2
-47 3 -48 4 0 320 0 319 53 2 52 2 -52 3 -53 4 0 45 0 44 53 2 52 2 -52 3 -53
4 0 245 0 244 53 2 52 2 -52 3 -53 4 0 45 0 44 48 2 47 2 -47 3 -48 4 0 820 0
819 3745 0 3745 0 0 -545z m-4098 -602 l2 -48 3 48 4 47 45 0 44 0 2 -47 2
-48 3 48 4 47 1095 0 1094 0 0 -795 0 -795 -2295 0 -2295 0 0 795 0 795 1145
0 1145 0 2 -47z m2700 -5 l2 -53 3 53 4 52 45 0 44 0 2 -52 2 -53 3 53 4 52
195 0 194 0 0 -795 0 -795 -445 0 -445 0 0 795 0 795 195 0 195 0 2 -52z m950
5 l2 -48 3 48 4 47 45 0 44 0 2 -47 2 -48 3 48 4 47 170 0 169 0 0 -795 0
-795 -445 0 -445 0 0 795 0 795 220 0 220 0 2 -47z m-7052 -373 l0 -120 -47
-2 -48 -2 48 -3 47 -4 0 -45 0 -44 -52 -2 -53 -2 53 -3 52 -4 0 -120 0 -119
-795 0 -795 0 0 295 0 295 795 0 795 0 0 -120z m0 -600 l0 -120 -47 -2 -48 -2
48 -3 47 -4 0 -45 0 -44 -47 -2 -48 -2 48 -3 47 -4 0 -120 0 -119 -795 0 -795
0 0 295 0 295 795 0 795 0 0 -120z m0 -675 l0 -195 -47 -2 -48 -2 48 -3 47 -4
0 -45 0 -44 -47 -2 -48 -2 48 -3 47 -4 0 -195 0 -194 -795 0 -795 0 0 445 0
445 795 0 795 0 0 -195z m0 -850 l0 -145 -52 -2 -53 -2 53 -3 52 -4 0 -45 0
-44 -47 -2 -48 -2 48 -3 47 -4 0 -595 0 -594 -795 0 -795 0 0 795 0 795 795 0
795 0 0 -145z"/>
<path d="M567 4473 c-15 -14 -6 -33 18 -39 35 -9 34 -38 -1 -31 -16 3 -22 1
-16 -5 15 -15 46 -5 50 15 2 11 -6 20 -22 27 -33 12 -34 34 -1 28 13 -3 22 -1
19 3 -6 11 -38 12 -47 2z"/>
<path d="M738 4468 c-2 -7 -1 -29 3 -48 l6 -35 2 33 c0 17 6 32 11 32 6 0 11
-15 11 -32 l2 -33 4 30 c3 16 10 33 16 37 8 5 7 8 -3 8 -13 0 -13 1 0 10 9 6
10 10 3 10 -6 0 -15 -4 -18 -10 -3 -5 -11 -10 -16 -10 -6 0 -7 5 -4 10 3 6 2
10 -3 10 -6 0 -12 -6 -14 -12z"/>
<path d="M973 4435 c0 -27 2 -38 4 -22 2 15 2 37 0 50 -2 12 -4 0 -4 -28z"/>
<path d="M639 4465 c-7 -6 2 -75 10 -75 3 0 6 16 5 35 -1 35 -6 49 -15 40z"/>
<path d="M675 4449 c-5 -8 -1 -9 14 -4 11 3 21 2 21 -3 0 -5 -9 -12 -21 -15
-22 -6 -22 -29 -1 -33 7 -1 8 0 2 3 -15 7 -12 23 5 23 8 0 15 -7 15 -15 0 -8
4 -15 9 -15 5 0 5 15 2 32 -7 33 -33 49 -46 27z"/>
<path d="M844 4446 c-10 -26 0 -51 21 -51 16 0 20 7 20 30 0 33 -30 49 -41 21z
m36 -21 c0 -16 -6 -25 -15 -25 -9 0 -15 9 -15 25 0 16 6 25 15 25 9 0 15 -9
15 -25z"/>
<path d="M901 4423 c1 -36 2 -36 8 -9 9 42 29 44 34 4 l4 -33 1 38 c2 33 0 37
-23 37 -22 0 -25 -4 -24 -37z"/>
<path d="M1004 4419 c8 -33 8 -42 -4 -50 -13 -9 -13 -10 0 -6 8 2 23 25 33 51
9 26 13 44 7 41 -5 -3 -10 -13 -10 -21 0 -8 -4 -14 -10 -14 -5 0 -10 6 -10 14
0 8 -4 17 -9 20 -4 3 -3 -13 3 -35z"/>
<path d="M4813 3235 c0 -27 2 -40 4 -27 5 27 19 28 33 2 6 -11 16 -20 22 -20
6 0 1 11 -12 25 -23 25 -23 25 -4 47 18 22 18 22 -8 0 l-26 -24 -5 24 c-2 12
-4 1 -4 -27z"/>
<path d="M5013 3235 c0 -27 2 -38 4 -22 2 15 2 37 0 50 -2 12 -4 0 -4 -28z"/>
<path d="M4919 3265 c-7 -6 2 -75 10 -75 3 0 6 16 5 35 -1 35 -6 49 -15 40z"/>
<path d="M4893 3225 c0 -22 2 -30 4 -17 2 12 2 30 0 40 -3 9 -5 -1 -4 -23z"/>
<path d="M4954 3246 c-9 -24 0 -51 19 -54 9 -2 17 1 17 7 0 6 -7 8 -15 5 -11
-5 -15 1 -15 21 0 20 4 26 15 21 8 -3 15 -1 15 4 0 16 -30 12 -36 -4z"/>
<path d="M5037 3253 c6 -4 13 -22 16 -38 4 -27 5 -27 3 4 0 21 -7 36 -16 38
-10 3 -11 2 -3 -4z"/>
<path d="M5079 3244 c-16 -19 -1 -48 27 -51 13 -2 11 1 -6 9 l-25 12 28 4 c21
2 27 8 23 19 -3 8 -6 17 -6 19 0 11 -29 2 -41 -12z m36 -4 c3 -5 -3 -10 -15
-10 -12 0 -18 5 -15 10 3 6 10 10 15 10 5 0 12 -4 15 -10z"/>
<path d="M5141 3221 c1 -35 2 -35 8 -7 9 42 29 44 34 4 l5 -33 -2 35 c-1 29
-5 35 -23 36 -20 1 -23 -3 -22 -35z"/>
<path d="M7420 3306 c0 -42 2 -46 25 -46 18 0 29 8 37 26 15 33 1 58 -36 62
-25 3 -26 1 -26 -42z m53 12 c8 -12 7 -21 -2 -32 -23 -28 -41 -19 -41 20 0 28
4 35 16 32 9 -2 22 -10 27 -20z"/>
<path d="M7640 3307 c0 -44 2 -48 23 -45 29 4 37 55 10 65 -10 4 -21 11 -25
17 -4 6 -8 -11 -8 -37z m35 -12 c0 -10 -6 -20 -12 -22 -8 -3 -13 5 -13 22 0
17 5 25 13 23 6 -3 12 -13 12 -23z"/>
<path d="M7703 3305 c0 -27 2 -38 4 -22 2 15 2 37 0 50 -2 12 -4 0 -4 -28z"/>
<path d="M7504 3301 c0 -21 7 -36 16 -38 10 -3 11 -2 3 4 -6 4 -13 22 -16 38
-4 27 -5 27 -3 -4z"/>
<path d="M7543 3295 c0 -22 2 -30 4 -17 2 12 2 30 0 40 -3 9 -5 -1 -4 -23z"/>
<path d="M7574 3316 c-10 -26 0 -51 21 -51 16 0 20 7 20 30 0 33 -30 49 -41
21z m36 -21 c0 -16 -6 -25 -15 -25 -9 0 -15 9 -15 25 0 16 6 25 15 25 9 0 15
-9 15 -25z"/>
<path d="M7737 3324 c-4 -4 -7 -18 -7 -31 0 -26 26 -41 42 -25 8 8 5 9 -11 5
-12 -3 -21 -1 -21 6 0 6 9 11 21 11 14 0 19 5 17 17 -3 19 -29 29 -41 17z m33
-14 c0 -5 -7 -10 -15 -10 -8 0 -15 5 -15 10 0 6 7 10 15 10 8 0 15 -4 15 -10z"/>
<path d="M7831 3293 c2 -35 2 -35 6 -8 3 16 10 33 16 37 8 5 6 8 -5 8 -14 0
-18 -8 -17 -37z"/>
<path d="M7874 3316 c-10 -26 0 -51 21 -51 16 0 20 7 20 30 0 33 -30 49 -41
21z m36 -21 c0 -16 -6 -25 -15 -25 -9 0 -15 9 -15 25 0 16 6 25 15 25 9 0 15
-9 15 -25z"/>
<path d="M7935 3311 c-8 -26 4 -51 26 -51 20 0 36 40 24 59 -10 18 -43 12 -50
-8z m42 -7 c8 -21 -13 -42 -28 -27 -13 13 -5 43 11 43 6 0 13 -7 17 -16z"/>
<path d="M8003 3295 c0 -22 2 -30 4 -17 2 12 2 30 0 40 -3 9 -5 -1 -4 -23z"/>
<path d="M8028 3321 c6 -3 12 -20 15 -36 l4 -30 2 33 c0 17 5 32 10 32 6 0 12
-15 14 -32 l4 -33 1 37 c2 35 0 37 -29 36 -16 -1 -26 -4 -21 -7z"/>
<path d="M7680 3153 c0 -25 2 -44 4 -42 8 10 13 89 5 89 -5 0 -9 -21 -9 -47z"/>
<path d="M7740 3163 l-1 -38 -15 28 c-9 16 -18 27 -20 24 -6 -6 29 -67 39 -67
4 0 7 20 7 45 0 25 -2 45 -5 45 -3 0 -5 -17 -5 -37z"/>
<path d="M7770 3176 c0 -17 5 -23 18 -22 9 0 17 -6 17 -14 0 -9 -8 -14 -19
-13 -12 1 -15 -2 -8 -9 16 -16 42 -2 42 23 0 12 -8 23 -20 26 -27 7 -25 21 3
26 19 4 18 4 -5 6 -23 1 -28 -3 -28 -23z"/>
<path d="M8320 3306 c0 -42 2 -46 25 -46 18 0 29 8 37 26 15 33 1 58 -36 62
-25 3 -26 1 -26 -42z m53 12 c8 -12 7 -21 -2 -32 -23 -28 -41 -19 -41 20 0 28
4 35 16 32 9 -2 22 -10 27 -20z"/>
<path d="M8540 3307 c0 -44 2 -48 23 -45 29 4 37 55 10 65 -10 4 -21 11 -25
17 -4 6 -8 -11 -8 -37z m35 -12 c0 -10 -6 -20 -12 -22 -8 -3 -13 5 -13 22 0
17 5 25 13 23 6 -3 12 -13 12 -23z"/>
<path d="M8603 3305 c0 -27 2 -38 4 -22 2 15 2 37 0 50 -2 12 -4 0 -4 -28z"/>
<path d="M8404 3301 c0 -21 7 -36 16 -38 10 -3 11 -2 3 4 -6 4 -13 22 -16 38
-4 27 -5 27 -3 -4z"/>
<path d="M8443 3295 c0 -22 2 -30 4 -17 2 12 2 30 0 40 -3 9 -5 -1 -4 -23z"/>
<path d="M8474 3316 c-10 -26 0 -51 21 -51 16 0 20 7 20 30 0 33 -30 49 -41
21z m36 -21 c0 -16 -6 -25 -15 -25 -9 0 -15 9 -15 25 0 16 6 25 15 25 9 0 15
-9 15 -25z"/>
<path d="M8637 3324 c-4 -4 -7 -18 -7 -31 0 -26 26 -41 42 -25 8 8 5 9 -11 5
-12 -3 -21 -1 -21 6 0 6 9 11 21 11 14 0 19 5 17 17 -3 19 -29 29 -41 17z m33
-14 c0 -5 -7 -10 -15 -10 -8 0 -15 5 -15 10 0 6 7 10 15 10 8 0 15 -4 15 -10z"/>
<path d="M8731 3293 c2 -35 2 -35 6 -8 3 16 10 33 16 37 8 5 6 8 -5 8 -14 0
-18 -8 -17 -37z"/>
<path d="M8774 3316 c-10 -26 0 -51 21 -51 16 0 20 7 20 30 0 33 -30 49 -41
21z m36 -21 c0 -16 -6 -25 -15 -25 -9 0 -15 9 -15 25 0 16 6 25 15 25 9 0 15
-9 15 -25z"/>
<path d="M8836 3312 c-10 -30 4 -53 28 -50 31 4 30 62 -1 66 -14 2 -23 -3 -27
-16z m41 -8 c8 -21 -13 -42 -28 -27 -13 13 -5 43 11 43 6 0 13 -7 17 -16z"/>
<path d="M8903 3295 c0 -22 2 -30 4 -17 2 12 2 30 0 40 -3 9 -5 -1 -4 -23z"/>
<path d="M8928 3321 c6 -3 12 -20 15 -36 l4 -30 2 33 c0 17 5 32 10 32 6 0 12
-15 14 -32 l4 -33 1 37 c2 35 0 37 -29 36 -16 -1 -26 -4 -21 -7z"/>
<path d="M8580 3153 c0 -25 2 -44 4 -42 8 10 13 89 5 89 -5 0 -9 -21 -9 -47z"/>
<path d="M8640 3163 l-1 -38 -15 28 c-9 16 -18 27 -20 24 -6 -6 29 -67 39 -67
4 0 7 20 7 45 0 25 -2 45 -5 45 -3 0 -5 -17 -5 -37z"/>
<path d="M8674 3186 c-3 -8 -4 -27 -2 -43 2 -20 8 -28 23 -28 29 0 34 45 6 52
-12 3 -21 10 -21 15 0 6 9 8 20 5 11 -3 18 -1 14 4 -8 14 -34 11 -40 -5z m36
-46 c0 -11 -7 -20 -15 -20 -8 0 -15 9 -15 20 0 11 7 20 15 20 8 0 15 -9 15
-20z"/>
<path d="M633 3435 c0 -27 2 -38 4 -22 2 15 2 37 0 50 -2 12 -4 0 -4 -28z"/>
<path d="M1061 3433 l2 -48 6 39 6 39 17 -36 c24 -51 38 -46 37 11 l-2 47 -6
-40 -7 -40 -19 38 c-10 20 -22 37 -27 37 -4 0 -7 -21 -7 -47z"/>
<path d="M1155 3470 c-3 -5 -1 -10 4 -10 15 0 14 -57 -1 -63 -7 -3 1 -5 17 -5
17 0 24 2 18 5 -8 2 -13 22 -13 44 0 37 -12 51 -25 29z"/>
<path d="M405 3450 c-3 -5 3 -15 15 -22 26 -16 26 -32 0 -25 -11 3 -18 1 -14
-4 7 -13 31 -11 40 2 4 7 -4 20 -17 31 l-24 20 23 -5 c12 -3 20 -1 16 4 -7 12
-31 12 -39 -1z"/>
<path d="M473 3425 c0 -22 2 -30 4 -17 2 12 2 30 0 40 -3 9 -5 -1 -4 -23z"/>
<path d="M491 3421 c1 -35 2 -35 8 -7 9 42 29 44 34 4 l5 -33 -2 35 c-1 29 -5
35 -23 36 -20 1 -23 -3 -22 -35z"/>
<path d="M566 3453 c-3 -4 -6 -20 -6 -36 0 -25 3 -28 21 -24 13 3 19 1 16 -6
-2 -7 -12 -11 -22 -10 -12 1 -14 -2 -7 -9 22 -22 42 0 42 45 0 35 -3 43 -19
44 -10 1 -22 -1 -25 -4z m29 -28 c0 -10 -6 -20 -12 -22 -8 -3 -13 5 -13 22 0
17 5 25 13 23 6 -3 12 -13 12 -23z"/>
<path d="M657 3454 c-4 -4 -7 -18 -7 -31 0 -26 26 -41 42 -25 8 8 5 9 -11 5
-12 -3 -21 -1 -21 6 0 6 9 11 21 11 14 0 19 5 17 17 -3 19 -29 29 -41 17z m33
-14 c0 -5 -7 -10 -15 -10 -8 0 -15 5 -15 10 0 6 7 10 15 10 8 0 15 -4 15 -10z"/>
<path d="M751 3421 c1 -28 3 -30 6 -11 3 14 9 30 14 36 5 7 3 11 -6 11 -11 0
-15 -11 -14 -36z"/>
<path d="M794 3446 c-10 -26 0 -51 21 -51 16 0 20 7 20 30 0 33 -30 49 -41 21z
m36 -21 c0 -16 -6 -25 -15 -25 -9 0 -15 9 -15 25 0 16 6 25 15 25 9 0 15 -9
15 -25z"/>
<path d="M864 3446 c-10 -26 0 -51 21 -51 16 0 20 7 20 30 0 33 -30 49 -41 21z
m36 -21 c0 -16 -6 -25 -15 -25 -9 0 -15 9 -15 25 0 16 6 25 15 25 9 0 15 -9
15 -25z"/>
<path d="M932 3423 c1 -37 1 -37 5 -5 2 17 8 32 14 32 5 0 10 -15 10 -32 l1
-33 7 29 c9 42 29 44 34 4 l5 -33 -2 35 c-1 33 -3 35 -38 38 -38 2 -38 2 -36
-35z"/>
<path d="M633 2835 c0 -27 2 -38 4 -22 2 15 2 37 0 50 -2 12 -4 0 -4 -28z"/>
<path d="M1061 2833 l2 -48 6 39 6 39 17 -36 c24 -51 38 -46 37 11 l-2 47 -6
-40 -7 -40 -19 38 c-10 20 -22 37 -27 37 -4 0 -7 -21 -7 -47z"/>
<path d="M1155 2870 c-3 -5 0 -7 8 -4 26 10 27 -13 2 -40 -14 -15 -25 -29 -25
-32 0 -2 15 -3 33 -3 23 1 26 3 9 6 l-22 4 19 25 c11 14 17 32 14 40 -6 16
-29 19 -38 4z"/>
<path d="M405 2850 c-3 -5 3 -15 15 -22 26 -16 26 -32 0 -25 -11 3 -18 1 -14
-4 8 -14 44 -10 44 5 0 7 -10 21 -22 30 l-23 17 23 -5 c12 -2 20 0 16 5 -7 12
-31 12 -39 -1z"/>
<path d="M473 2825 c0 -22 2 -30 4 -17 2 12 2 30 0 40 -3 9 -5 -1 -4 -23z"/>
<path d="M491 2821 c1 -35 2 -35 8 -7 9 42 29 44 34 4 l5 -33 -2 35 c-1 29 -5
35 -23 36 -20 1 -23 -3 -22 -35z"/>
<path d="M566 2853 c-3 -4 -6 -20 -6 -36 0 -25 3 -28 21 -24 13 3 19 1 16 -6
-2 -7 -12 -11 -22 -10 -12 1 -14 -2 -7 -9 22 -22 42 0 42 45 0 35 -3 43 -19
44 -10 1 -22 -1 -25 -4z m29 -28 c0 -10 -6 -20 -12 -22 -8 -3 -13 5 -13 22 0
17 5 25 13 23 6 -3 12 -13 12 -23z"/>
<path d="M657 2854 c-4 -4 -7 -18 -7 -31 0 -26 26 -41 42 -25 8 8 5 9 -11 5
-12 -3 -21 -1 -21 6 0 6 9 11 21 11 14 0 19 5 17 17 -3 19 -29 29 -41 17z m33
-14 c0 -5 -7 -10 -15 -10 -8 0 -15 5 -15 10 0 6 7 10 15 10 8 0 15 -4 15 -10z"/>
<path d="M751 2821 c1 -28 3 -30 6 -11 3 14 9 30 14 36 5 7 3 11 -6 11 -11 0
-15 -11 -14 -36z"/>
<path d="M794 2846 c-10 -26 0 -51 21 -51 16 0 20 7 20 30 0 33 -30 49 -41 21z
m36 -21 c0 -16 -6 -25 -15 -25 -9 0 -15 9 -15 25 0 16 6 25 15 25 9 0 15 -9
15 -25z"/>
<path d="M864 2846 c-10 -26 0 -51 21 -51 16 0 20 7 20 30 0 33 -30 49 -41 21z
m36 -21 c0 -16 -6 -25 -15 -25 -9 0 -15 9 -15 25 0 16 6 25 15 25 9 0 15 -9
15 -25z"/>
<path d="M932 2823 c1 -37 1 -37 5 -5 2 17 8 32 14 32 5 0 10 -15 10 -32 l1
-33 7 29 c9 42 29 44 34 4 l5 -33 -2 35 c-1 33 -3 35 -38 38 -38 2 -38 2 -36
-35z"/>
<path d="M370 2085 c0 -40 2 -45 23 -45 29 0 47 18 47 45 0 27 -18 45 -47 45
-21 0 -23 -5 -23 -45z m55 0 c0 -23 -5 -31 -22 -33 -20 -3 -23 1 -23 33 0 32
3 36 23 33 17 -2 22 -10 22 -33z"/>
<path d="M591 2089 c-1 -42 1 -46 22 -45 18 1 22 7 22 31 0 20 -5 30 -15 30
-8 0 -18 7 -22 15 -4 8 -7 -6 -7 -31z m39 -14 c0 -26 -14 -33 -25 -15 -9 14 1
40 15 40 5 0 10 -11 10 -25z"/>
<path d="M663 2085 c0 -27 2 -38 4 -22 2 15 2 37 0 50 -2 12 -4 0 -4 -28z"/>
<path d="M1090 2083 c0 -25 2 -44 4 -42 8 10 13 89 5 89 -5 0 -9 -21 -9 -47z"/>
<path d="M1150 2093 l-1 -38 -15 28 c-9 16 -18 27 -20 24 -6 -6 29 -67 39 -67
4 0 7 20 7 45 0 25 -2 45 -5 45 -3 0 -5 -17 -5 -37z"/>
<path d="M1184 2119 c-4 -8 -3 -9 4 -5 22 13 37 -6 17 -21 -17 -12 -17 -13 -2
-13 9 0 17 -7 17 -16 0 -12 -6 -15 -21 -11 -16 4 -19 3 -11 -5 21 -21 41 -1
39 39 -2 39 -27 57 -43 32z"/>
<path d="M462 2078 c-2 -35 0 -38 23 -36 22 2 25 7 24 38 -1 34 -1 34 -8 6 -9
-42 -29 -44 -34 -4 l-4 33 -1 -37z"/>
<path d="M531 2096 c-19 -23 -4 -58 22 -54 17 2 22 10 22 33 0 34 -24 45 -44
21z m36 -12 c8 -21 -13 -42 -28 -27 -13 13 -5 43 11 43 6 0 13 -7 17 -16z"/>
<path d="M689 2094 c-16 -19 -1 -48 27 -51 13 -2 11 1 -6 9 l-25 12 28 4 c21
2 27 8 23 19 -3 8 -6 17 -6 19 0 11 -29 2 -41 -12z m36 -4 c3 -5 -3 -10 -15
-10 -12 0 -18 5 -15 10 3 6 10 10 15 10 5 0 12 -4 15 -10z"/>
<path d="M791 2073 c2 -35 2 -35 6 -8 3 16 10 33 16 37 8 5 6 8 -5 8 -14 0
-18 -8 -17 -37z"/>
<path d="M826 2092 c-10 -30 4 -53 28 -50 31 4 30 62 -1 66 -14 2 -23 -3 -27
-16z m41 -8 c8 -21 -13 -42 -28 -27 -13 13 -5 43 11 43 6 0 13 -7 17 -16z"/>
<path d="M894 2096 c-10 -26 0 -51 21 -51 16 0 20 7 20 30 0 33 -30 49 -41 21z
m36 -21 c0 -16 -6 -25 -15 -25 -9 0 -15 9 -15 25 0 16 6 25 15 25 9 0 15 -9
15 -25z"/>
<path d="M962 2072 l1 -37 4 33 c5 40 23 42 23 2 0 -16 5 -30 10 -30 6 0 10
14 10 30 0 40 18 38 23 -2 l4 -33 1 36 c2 36 2 37 -38 37 -40 1 -40 1 -38 -36z"/>
<path d="M422 873 c12 -3 18 -17 21 -46 l4 -42 1 42 c2 30 7 43 20 46 9 3 -1
5 -23 5 -22 0 -32 -2 -23 -5z"/>
<path d="M623 835 c0 -27 2 -38 4 -22 2 15 2 37 0 50 -2 12 -4 0 -4 -28z"/>
<path d="M1051 833 l2 -48 6 39 6 39 17 -36 c24 -51 38 -46 37 11 l-2 47 -6
-40 -7 -40 -19 38 c-10 20 -22 37 -27 37 -4 0 -7 -21 -7 -47z"/>
<path d="M1153 853 c-28 -38 -28 -43 -4 -43 11 0 21 -5 23 -12 8 -23 14 16 8
52 l-5 35 -22 -32z m17 -13 c0 -11 -7 -20 -15 -20 -13 0 -13 3 -3 20 7 11 14
20 15 20 2 0 3 -9 3 -20z"/>
<path d="M481 823 c1 -28 3 -31 6 -13 3 14 10 31 15 38 8 9 6 12 -6 12 -12 0
-16 -9 -15 -37z"/>
<path d="M523 825 c0 -22 2 -30 4 -17 2 12 2 30 0 40 -3 9 -5 -1 -4 -23z"/>
<path d="M551 808 c1 -29 3 -46 6 -37 2 10 13 19 24 22 30 8 23 61 -8 65 -22
3 -23 0 -22 -50z m39 17 c0 -16 -6 -25 -15 -25 -9 0 -15 9 -15 25 0 16 6 25
15 25 9 0 15 -9 15 -25z"/>
<path d="M644 846 c-10 -26 1 -51 24 -54 12 -2 22 1 22 7 0 6 -6 8 -14 5 -8
-3 -17 -1 -21 5 -4 7 4 11 20 11 23 0 24 2 15 20 -12 23 -38 26 -46 6z m36 -6
c0 -5 -7 -10 -16 -10 -8 0 -12 5 -9 10 3 6 10 10 16 10 5 0 9 -4 9 -10z"/>
<path d="M741 823 c1 -28 3 -31 6 -13 3 14 10 31 15 38 8 9 6 12 -6 12 -12 0
-16 -9 -15 -37z"/>
<path d="M787 853 c-13 -12 -7 -54 9 -60 23 -8 47 20 39 46 -6 20 -34 28 -48
14z m36 -16 c3 -8 1 -20 -4 -28 -11 -19 -34 3 -26 25 8 20 23 21 30 3z"/>
<path d="M854 846 c-10 -26 0 -51 21 -51 16 0 20 7 20 30 0 33 -30 49 -41 21z
m36 -21 c0 -16 -6 -25 -15 -25 -9 0 -15 9 -15 25 0 16 6 25 15 25 9 0 15 -9
15 -25z"/>
<path d="M922 823 c1 -37 1 -37 5 -5 2 17 8 32 14 32 5 0 10 -15 10 -32 l1
-33 7 29 c9 42 29 44 34 4 l5 -33 -2 35 c-1 33 -3 35 -38 38 -38 2 -38 2 -36
-35z"/>
</g>
</svg>
