<?xml version="1.0" encoding="UTF-8"?>
<svg width="700pt" height="700pt" version="1.1" viewBox="0 0 700 700" xmlns="http://www.w3.org/2000/svg" xmlns:xlink="http://www.w3.org/1999/xlink">
 <g>
  <path d="m350 560c52.863-85.898 199.88-274.22 199.88-360.12 0-110.68-89.203-199.88-199.88-199.88s-199.88 89.203-199.88 199.88c0 85.898 147.02 274.22 199.88 360.12zm0-460.89c56.164 0 100.77 44.602 100.77 100.77 0 56.164-44.602 100.77-100.77 100.77s-100.77-44.602-100.77-100.77c0-56.164 44.602-100.77 100.77-100.77z" fill-rule="evenodd" fill="#1a4531"/>
  <path d="m350 127.2c39.645 0 72.684 33.039 72.684 72.684 0 39.645-33.039 72.684-72.684 72.684s-72.684-33.039-72.684-72.684c0-39.645 33.039-72.684 72.684-72.684z" fill-rule="evenodd" fill="#1a4531"/>
 </g>
</svg>
