<svg xmlns="http://www.w3.org/2000/svg" xmlns:xlink="http://www.w3.org/1999/xlink" width="700pt" height="700pt" version="1.1" viewBox="0 0 700 700">
 <g>
  <path d="m350 0c-111.91 0-202.63 90.727-202.63 202.64 0 161.29 202.63 357.36 202.63 357.36s202.63-196.07 202.63-357.36c0-111.91-90.719-202.64-202.63-202.64zm0 350.49c-81.664 0-147.86-66.199-147.86-147.86 0-81.664 66.199-147.87 147.86-147.87 81.66 0 147.86 66.199 147.86 147.86 0 81.664-66.203 147.86-147.86 147.86zm111.52-158.43c0-14.59-5.9688-23.211-32.496-23.211h-115.69c-4.1836-6.9453-11.793-11.586-20.492-11.586-13.199 0-23.906 10.703-23.906 23.906 0 6.6641 2.7266 12.691 7.1289 17.023h-13.996v-41.66c0-6.5195-5.2812-11.793-11.801-11.793-6.5117 0-11.793 5.2812-11.793 11.793v103.32c0 6.5117 5.2812 11.793 11.793 11.793 6.5195 0 11.801-5.2812 11.801-11.793v-38.074h46.535v23.426h118.56v14.648c0 6.5117 5.2812 11.793 11.793 11.793s11.793-5.2812 11.793-11.793v-14.648h10.754c0.015625 0 0.015625-43.285 0.015625-53.148zm-141.91 40.93v-51.918h20.242v51.918z" fill="#1a4531"/>
 </g>
</svg>