<?xml version="1.0" encoding="UTF-8"?>
<svg width="700pt" height="700pt" version="1.1" viewBox="0 0 700 700" xmlns="http://www.w3.org/2000/svg" xmlns:xlink="http://www.w3.org/1999/xlink">
 <g>
  <path d="m350 28c-98.988 0-179.24 80.246-179.24 179.24 0 98.988 184.7 324.76 184.7 324.76s173.78-225.77 173.78-324.76-80.246-179.24-179.23-179.24zm0 36.383c37.891 0 74.223 15.051 101.02 41.844 26.789 26.789 41.84 63.125 41.84 101.01s-15.051 74.223-41.84 101.02c-26.793 26.789-63.125 41.84-101.02 41.84-37.887 0-74.223-15.051-101.01-41.84-26.793-26.789-41.844-63.125-41.844-101.02 0-37.887 15.051-74.223 41.844-101.01 26.789-26.793 63.125-41.844 101.01-41.844z" fill="#bda785"/>
  <path d="m312.02 280.03c3.75 1.9766 6.8672 3.0859 9.0195 3.8516 29.496 7.4453 56.109 5.1445 79.406-14.266 22.805-19.289 33.605-49.879 27.98-79.227-1.5469-8.0742-5.0625-17.539-9.1992-24.758-2.0898-3.6484-6.6328-9.9688-9.3516-13.008-4.5273-5.0664-11.039-10.566-16.801-14.195-13.809-8.6992-31.348-12.922-47.711-11.48-22.25 1.957-43.141 14.148-56.961 30.707-12.566 15.055-19.23 36.203-18.191 55.918 0.40234 7.6445 1.1914 12.176 3.3359 19.227 3.0547 10.055 6.3633 16.75 12.23 24.746 7.543 10.281 14.625 16.348 26.242 22.484zm-8.1953-8.3945c-1.043-0.54297-2.2539-1.3945-3.8008-2.6484-6.5898-5.7109-11.883-12.309-15.637-19.266 0 0 1.8086-11.48 2.9219-17.129 6.4766 0.48438 13.148 1.8945 19.086 2.7148 1.1914 0.15625 2.3008 0.3125 3.1172 0.44141 0.40625 0.0625 0.74609 0.12109 0.97656 0.16406 0.066407 0.015626 0.10938 0.023438 0.15625 0.035157 0.35156 0.24219 1.2539 1.0547 2.4062 2.2461 1.1914 1.2305 2.6719 2.8477 4.2969 4.6953 3.2461 3.6875 7.0742 8.2852 10.395 12.547l3.0195 3.8789c-0.55859 5.7852-1.9609 11.246-1.8867 16.406-7.8711-1.1094-14.445-2.3398-22.23-3.2266-0.89062-0.066406-2.8047-0.85938-2.8047-0.85938zm27.922 4.543h-0.015625zm0.03125-0.20703c-0.066406-5.5859 0.51953-10.543 1.9297-15.844 0.33203-0.875 0.53125-1.0117 1.2852-1.4727 0.58594-0.35938 1.9414-0.98828 3.7305-1.7422 1.7891-0.75391 4.0273-1.6367 6.4141-2.5312 4.7812-1.7852 10.266-3.668 14.43-4.8906l4.1875-1.2266 24.883 9.207s-2.2578 12.23-4.043 18.391c-0.27344 0.80469-0.35938 0.88672-0.67188 1.1758-10.605 5.5938-17.828 8.3984-27.367 8.3477-6.4922-1.8359-13.273-4.1797-19.266-6.6133-1.9961-0.75391-3.6758-1.6992-5.5078-2.8008zm-45.027-46.672-7.543-29.699s10.977-16.816 16.5-25.203l1.0469 0.082031c7.5273 0.57031 14.371 1.1914 16.852 1.5234 0.82812 0.10938 1.6953 0.25 2.4219 0.38281 0.72266 0.13281 1.3633 0.28516 1.5 0.33203 0.22656 0.074219 0.33984 0.11719 0.38281 0.14062 0.03125 0.023437 0-0.015625 0.023438 0.023437 0-0.015624 0.015625 0.023438 0.023437 0.078126 0.015625 0.054687 0.039063 0.13281 0.066407 0.23828 0.050781 0.20703 0.11328 0.51172 0.17969 0.92188 2.3906 10.602 4.625 19.035 7.2266 29.016l-4.8242 8.3008c-2.5977 4.4688-4.9492 8.4336-6.7734 11.445-1.8242 3.0117-3.1914 5.1445-3.5977 5.6641-0.10156 0.13281-0.16016 0.19531-0.1875 0.21875-0.023437 0.023437-0.03125 0.023437-0.11328 0.042969-0.097656 0.027344-0.5 0.054687-1.1875 0h-0.015625c-7.543-1.1836-22.004-3.5273-22.004-3.5273zm-13.066-30.145c0.015625-0.074219 0.015625-0.13672 0.03125-0.23047 0.12891-0.69531 0.33984-1.7578 0.52344-2.6328 0.44141-2.0781 0.76953-4.1758 1.3906-6.1797 2.3125-7.4258 4.8672-14.871 8.6953-21.621 2.9648-5.2266 7.2891-10.387 10.918-14.391 1.7773-1.957 2.8008-3.0195 3.457-3.5117 0.67188-0.5 0.87109-0.50781 1.6953-0.53125h0.058594c-0.015625 0.035156-0.023437 0.0625-0.050781 0.10938-0.42969 0.87109-1.043 2.0703-1.7383 3.3828-2.2617 4.2773-2.7148 5.375-3.582 8.6367-0.51562 1.9297-0.95703 3.9844-1.2539 5.7578-0.29297 1.7344-0.45312 3.1133-0.375 4.0703l-0.015625 0.023437v0.054688c0.023438 0.30859-0.10547 0.52734-0.10547 0.52734-5.5352 8.7617-11.469 17.281-16.891 26.117-0.90625 0.18359-1.9141 0.30859-2.7773 0.41406zm90.957 46.289c-0.015625-10.168-3.4766-29.262-3.4766-29.262s0.066407-0.082032 0.11719-0.13672c7.9609-7.7383 22.898-23.574 22.898-23.574l1.6211 0.33594c3.875 0.80078 7.4453 1.8359 12.309 3.5781 2.6094 0.93359 6.2734 2.4219 8.0391 3.2539l2.8398 1.3359c0.84375 10.91 2.7852 30.078 2.7852 30.078-6.332 8.9609-15.098 17.32-22.203 23.477zm-36.645-39.461s-5.5352-20.676-7.2734-29.312l-0.097656-0.75391 4.3398-4.3945c2.9062-2.9414 7.2266-7.1641 10.887-10.676 1.8281-1.7578 3.4961-3.3398 4.7344-4.4922 0.64062-0.61328 1.2656-1.1602 1.918-1.7305l30.203 7.0898s7.8594 20.578 9.0508 29.234c0 0-11.93 13.719-18.977 20.121-1.793 1.6172-3.2383 3.0859-3.2383 3.0859-6.9023-0.87109-20.652-4.5352-20.652-4.5352s-7.3984-2.043-10.895-3.6406zm87.047 25.613c-1.5117-9.9297-2.3086-21.434-3.4375-31.27l1.2227-6.9922c0.66016-3.7891 1.4258-7.9258 2.0781-11.297 0.65234-3.3711 1.2227-6.0781 1.3906-6.6602 0.050781-0.16406 0.066406-0.24609 0.066406-0.24609 1.3789-0.33984 2.7617-0.48047 4.0781-0.625l1.3867 4.0039c5.8477 15.477 6.082 32.25 2.5664 46.527-0.82422 3.3477-1.6836 6.2773-2.6641 9.4062-0.12891 0.41016-0.19922 0.56641-0.26953 0.75-2.2031-1.1953-4.5078-2.3711-6.4258-3.5938zm-111-85.141c1.4883-1.1562 3.2891-2.5117 4.7461-3.5469 5.9297-4.1992 8.8711-5.6172 17.668-8.5352 2.125-0.70312 4.6914-1.4883 5.7969-1.7812l-0.39844 0.6875-1.3516 2.3555-3.0664 1.0391c-4.1016 1.3906-13.852 5.5391-20.152 8.5547-1.9062 0.91406-2.5117 1.0273-3.2461 1.2266zm38.098 5.1172-1.6797-3.1484c-1.1953-2.25-2.5938-4.7188-3.8203-6.7852-1.2227-2.0625-2.2188-3.6641-2.8281-4.4102l-0.34766-0.42578 0.90234-1.6875c1.1875-2.2266 1.7578-3.2148 2.3086-3.6367 0.55469-0.42188 1.4492-0.59375 3.625-0.93359 13.062-2.0469 23.344-0.95312 38.082 4.0742 4.9844 1.9844 13.758 6.4414 13.758 6.4414l0.85547 9.6367s-11.148 6.1523-17 8.0508c-0.88281 0.27734-1.5742 0.33203-1.5742 0.33203s-21.75-5.5195-32.285-7.5078zm74.035 20.691c-6.5859-7.7305-20.43-20.945-20.43-20.945l-0.015625-0.027343s-0.24609-5.082-0.35938-7.6133c0 0 0.42969 0.32812 0.83984 0.67578 10.512 7.5312 18.387 17.684 22.273 26.457 0.16406 0.28516 0.30469 0.60156 0.43359 0.85938-0.89453 0.27344-2.7617 0.58203-2.7617 0.58203z" fill="#bda785"/>
 </g>
</svg>
