<svg xmlns="http://www.w3.org/2000/svg" xmlns:xlink="http://www.w3.org/1999/xlink" width="700pt" height="700pt" version="1.1" viewBox="0 0 700 700">
 <defs fill="#1a4531">
z</defs>
 <g>
  <path d="m350 0c-111.91 0-202.63 90.727-202.63 202.64 0 161.29 202.63 357.36 202.63 357.36s202.63-196.07 202.63-357.36c0-111.91-90.719-202.64-202.63-202.64zm0 350.49c-81.664 0-147.86-66.199-147.86-147.86 0-81.664 66.199-147.87 147.86-147.87 81.66 0 147.86 66.199 147.86 147.86 0 81.664-66.203 147.86-147.86 147.86zm111.52-158.43c0-14.59-5.9688-23.211-32.496-23.211h-115.69c-4.1836-6.9453-11.793-11.586-20.492-11.586-13.199 0-23.906 10.703-23.906 23.906 0 6.6641 2.7266 12.691 7.1289 17.023h-13.996v-41.66c0-6.5195-5.2812-11.793-11.801-11.793-6.5117 0-11.793 5.2812-11.793 11.793v103.32c0 6.5117 5.2812 11.793 11.793 11.793 6.5195 0 11.801-5.2812 11.801-11.793v-38.074h46.535v23.426h118.56v14.648c0 6.5117 5.2812 11.793 11.793 11.793s11.793-5.2812 11.793-11.793v-14.648h10.754c0.015625 0 0.015625-43.285 0.015625-53.148zm-141.91 40.93v-51.918h20.242v51.918z" fill="#1a4531"/>
  <use x="70" y="644" xlink:href="#t" fill="#1a4531"/>
  <use x="90.550781" y="644" xlink:href="#b" fill="#1a4531"/>
  <use x="104.359375" y="644" xlink:href="#a" fill="#1a4531"/>
  <use x="123.347656" y="644" xlink:href="#d" fill="#1a4531"/>
  <use x="142.242188" y="644" xlink:href="#c" fill="#1a4531"/>
  <use x="155.628906" y="644" xlink:href="#a" fill="#1a4531"/>
  <use x="174.617188" y="644" xlink:href="#i" fill="#1a4531"/>
  <use x="204.410156" y="644" xlink:href="#g" fill="#1a4531"/>
  <use x="224.453125" y="644" xlink:href="#h" fill="#1a4531"/>
  <use x="252.453125" y="644" xlink:href="#g" fill="#1a4531"/>
  <use x="282.242188" y="644" xlink:href="#f" fill="#1a4531"/>
  <use x="294.421875" y="644" xlink:href="#d" fill="#1a4531"/>
  <use x="313.320312" y="644" xlink:href="#b" fill="#1a4531"/>
  <use x="327.125" y="644" xlink:href="#s" fill="#1a4531"/>
  <use x="336.726562" y="644" xlink:href="#d" fill="#1a4531"/>
  <use x="355.617188" y="644" xlink:href="#r" fill="#1a4531"/>
  <use x="70" y="672" xlink:href="#f" fill="#1a4531"/>
  <use x="82.183594" y="672" xlink:href="#b" fill="#1a4531"/>
  <use x="95.992188" y="672" xlink:href="#e" fill="#1a4531"/>
  <use x="115.226562" y="672" xlink:href="#q" fill="#1a4531"/>
  <use x="154.152344" y="672" xlink:href="#c" fill="#1a4531"/>
  <use x="167.535156" y="672" xlink:href="#p" fill="#1a4531"/>
  <use x="187.46875" y="672" xlink:href="#a" fill="#1a4531"/>
  <use x="216.207031" y="672" xlink:href="#o" fill="#1a4531"/>
  <use x="239.640625" y="672" xlink:href="#e" fill="#1a4531"/>
  <use x="258.878906" y="672" xlink:href="#n" fill="#1a4531"/>
  <use x="278.8125" y="672" xlink:href="#m" fill="#1a4531"/>
  <use x="308.492188" y="672" xlink:href="#l" fill="#1a4531"/>
  <use x="329.015625" y="672" xlink:href="#b" fill="#1a4531"/>
  <use x="342.820312" y="672" xlink:href="#e" fill="#1a4531"/>
  <use x="362.058594" y="672" xlink:href="#k" fill="#1a4531"/>
  <use x="371.65625" y="672" xlink:href="#a" fill="#1a4531"/>
  <use x="390.648438" y="672" xlink:href="#j" fill="#1a4531"/>
  <use x="407.242188" y="672" xlink:href="#c" fill="#1a4531"/>
 </g>
</svg>