<?xml version="1.0" encoding="UTF-8"?>
<svg width="700pt" height="700pt" version="1.1" viewBox="0 0 700 700" xmlns="http://www.w3.org/2000/svg" xmlns:xlink="http://www.w3.org/1999/xlink">
 <g>
  <path d="m358.76 8.5c-87.73 0-158.87 67.676-158.87 151.17 0 23.84 5.9258 47.332 17.293 68.578l0.042968 0.085937c3.0352 5.5703 5.25 10.934 8.9922 16.102l133.22 209.19 130.62-207.75c3.6328-5.0781 7.2578-12.113 10.215-17.578 11.434-21.234 17.27-44.742 17.324-68.602-0.003906-83.492-71.125-151.18-158.86-151.18l0.011718-0.023437zm0 35.285v-0.003906c31.195 0.003906 61.109 12.398 83.168 34.457 22.059 22.059 34.453 51.973 34.453 83.168 0.003906 31.199-12.387 61.121-34.445 83.184s-51.977 34.457-83.176 34.461c-31.203 0.003907-61.125-12.391-83.191-34.453-22.062-22.066-34.457-51.988-34.453-83.191 0.003907-31.199 12.398-61.117 34.461-83.176 22.062-22.059 51.984-34.449 83.184-34.449zm1.75 33.336-23.801 28.941-23.668 28.93 16.625-0.042969-22.848 27.922 19.633-0.042969-26.383 32.242 46.406-0.12109v48.695h24.305v-48.75l46.648-0.12109-24.477-32.102 17.73-0.042969-21.195-27.812 14.973-0.042968-43.945-57.652zm-1.7617 402.85c-37.238" fill="#1a4531"/>
 </g>
</svg>
