<?xml version="1.0" encoding="UTF-8"?>
<svg width="700pt" height="700pt" version="1.1" viewBox="0 0 700 700" xmlns="http://www.w3.org/2000/svg" xmlns:xlink="http://www.w3.org/1999/xlink">
 <g>
  <path d="m350 0c-111.91 0-202.63 90.719-202.63 202.64 0 161.29 202.63 357.36 202.63 357.36s202.63-196.07 202.63-357.36c0-111.92-90.719-202.64-202.63-202.64zm0 350.49c-81.664 0-147.86-66.199-147.86-147.86 0-81.664 66.199-147.87 147.86-147.87 81.66 0 147.86 66.199 147.86 147.86 0 81.664-66.203 147.86-147.86 147.86zm77.598-202.09v62.074c0 10.348-10.348 10.348-10.348 10.348v62.074c0 11.426-9.2695 20.691-20.691 20.691-11.43 0-20.691-9.2695-20.691-20.691v-186.23s51.73 10.344 51.73 51.73zm-93.125 10.352h-10.348v-51.734h-20.68v51.734h-10.348v-51.734h-20.691v52.078c0 15.012 8.4453 28.016 20.691 35.172v88.641c0 11.426 9.2617 20.691 20.691 20.691 11.43 0 20.691-9.2695 20.691-20.691v-88.367c12.309-7.0938 20.691-20.227 20.691-35.441v-52.078h-20.703l-0.003906 51.73z" fill="#1a4531"/>
 </g>
</svg>
