<?xml version="1.0" encoding="UTF-8"?>
<svg width="700pt" height="700pt" version="1.1" viewBox="0 0 700 700" xmlns="http://www.w3.org/2000/svg" xmlns:xlink="http://www.w3.org/1999/xlink">
 <g>
  <path d="m350 28c-98.988 0-179.24 80.246-179.24 179.24 0 98.988 184.7 324.76 184.7 324.76s173.78-225.77 173.78-324.76-80.246-179.24-179.23-179.24zm0 36.383c37.887 0 74.223 15.051 101.02 41.844 26.789 26.789 41.84 63.125 41.84 101.01s-15.051 74.223-41.84 101.02c-26.793 26.789-63.129 41.84-101.02 41.84s-74.223-15.051-101.01-41.84c-26.793-26.793-41.844-63.129-41.844-101.02s15.051-74.223 41.844-101.01c26.789-26.793 63.125-41.844 101.01-41.844z" fill="#1a4531"/>
  <path d="m305.27 146.2c-9.1562 0.058594-17.234 1.875-25.348 5.6875-9.875 4.6406-18.039 11.625-24.168 20.68-4.9219 7.2695-8.2891 16.281-9.5352 25.488-0.25781 1.9102-0.43359 4.9336-0.49219 7.8203v-0.023437c-0.042969 2.2461-0.015625 4.4102 0.097656 5.8984 1.457 17.148 9.832 34.742 21.699 48.504 4.1602 4.7695 7.2109 7.707 12.641 12.172 14.738 12.113 33.141 20.188 50.359 22.098 6.0742 0.67188 8.5195 1.0938 15.195 2.6094 20.391 4.6328 39.418 12.316 55.57 22.43 3.1758 2.0078 6.1562 4.1758 8.9883 6.4688l-0.023438 0.054688 14.434 14.852v-7.293h12.891l-16.48-16.957c-1.8242-2.2109-4.4102-6.0664-6.6992-10.09-4.0195-7.0742-8.2227-16.215-11.352-24.691-4.1602-11.273-7.7383-25.531-9.5781-38.176-0.28906-1.9883-0.5625-3.6758-0.60156-3.75-0.042969-0.074219-0.17188-1.4922-0.28906-3.1523-0.91797-13.898-4.7109-25.855-11.504-39.781-2.9141-5.625-8.0703-13.289-12.484-18.562-2.1289-2.543-7.1719-7.8555-9.3984-9.9023-8.0781-7.4219-17.395-13.402-26.668-17.113-8.6875-3.4766-16.48-5.0859-25.41-5.2578-0.62109-0.011719-1.2344-0.015625-1.8438-0.011719zm0.30078 8.6133c0.21875-0.003906 0.47656 0 0.77734 0l1.4258 0.027344-0.91797 0.88281-0.91797 0.87891-0.74609-0.76172c-0.34375-0.35156-0.53906-0.58594-0.54687-0.74609-0.007813-0.1875 0.27344-0.26953 0.92969-0.28516zm4.1055 0.0625 1.1211 0.027344 1.125 0.027344 1.4727 1.4961c0.80859 0.82031 1.4648 1.5859 1.4648 1.6953s-0.8125 0.98047-1.8008 1.9297c-0.98828 0.94922-1.8867 1.7227-1.9961 1.7227-0.25-0.003906-4.0117-3.9375-4.0117-4.1836v-0.003906c0-0.10156 0.59375-0.75 1.3125-1.4453l1.3086-1.2656zm-7.6641 0.22656c0.8125 0.023437 1.1523 0.35156 1.9297 1.1992l1.082 1.1836-1.9141 1.8359c-1.4727 1.418-1.9805 1.8008-2.207 1.668-0.16406-0.097657-1.1328-1.0547-2.1562-2.1289l-1.8555-1.957 0.64844-0.64062c0.5625-0.55859 0.86719-0.67578 2.3008-0.90625 1.0273-0.16406 1.6875-0.26562 2.1719-0.25391zm12.355 0.12109c0.12891-0.011718 0.30859 0 0.50391 0.035157 0.39062 0.0625 1.1172 0.17969 1.6133 0.25391 0.49609 0.074219 0.90234 0.19141 0.90234 0.26172 0 0.066406-0.32812 0.44141-0.72656 0.83203l-0.72266 0.70703-0.89453-0.91797c-0.49219-0.50391-0.88672-0.99219-0.89062-1.0859 0-0.042969 0.082031-0.074219 0.21094-0.082031zm4.9609 0.77344 1.6406 0.375c0.90234 0.20703 1.8086 0.46094 2.0156 0.57422 0.41406 0.22266 1.9609 1.7109 1.9609 1.8867 0 0.058593-0.87891 0.94531-1.9492 1.9688l-1.9492 1.8594-2.0703-2.1641-2.0742-2.1641 0.44531-0.57813c0.24609-0.31641 0.79297-0.84375 1.2148-1.168zm-24.949 0.46875c1.0469 0.023438 0.82813 0.41406-1.3555 2.4023-0.92578 0.84375-1.7734 1.5312-1.8789 1.5312-0.10547 0-0.66797-0.48047-1.25-1.0664-0.58984-0.58984-0.875-0.96094-0.89063-1.1523-0.007812-0.042969 0.007813-0.070313 0.03125-0.10156 0.26953-0.26172 4.7891-1.6172 5.3398-1.6172zm1.6289 1.3047 4.1719 4.3594-3.8516 3.7031-0.66797-0.5625c-0.36719-0.30859-1.3359-1.2656-2.1484-2.1289l-1.4805-1.5625 0.96094-0.98828c0.53125-0.54297 1.4258-1.4023 1.9883-1.9062l1.0273-0.91797zm32.195 0.78125c0.35156 0.027343 0.83984 0.17969 1.6172 0.46484 3.3555 1.2383 3.4961 1.3164 3.3555 1.8711-0.074219 0.28125-0.53125 0.90625-1.0234 1.3945-0.49219 0.48828-0.98438 0.88281-1.0898 0.88281-0.10938 0-1.0586-0.91016-2.1133-2.0156-1.2891-1.3516-1.6992-1.8047-1.7148-2.0547v-0.050781c0.015625-0.078125 0.074219-0.14453 0.16016-0.21875 0.23828-0.20703 0.45703-0.30469 0.8125-0.27734zm-22.297 0.09375c0.24219-0.074219 4.0859 3.8477 4.0859 4.1602 0 0.10938-0.82812 0.98047-1.8281 1.9375-1.5547 1.4844-1.875 1.7109-2.1797 1.5391-0.45312-0.25391-3.7969-3.8594-3.7969-4.0859 0-0.20312 3.4062-3.4609 3.7188-3.5547zm-18.773 0.070312c0.32812-0.09375 0.64062 0.14453 1.6406 1.2539 0.67969 0.75391 1.2344 1.4609 1.2344 1.5781 0 0.11719-0.83594 1.0156-1.8555 2l-1.8516 1.793-1.957-2.0391c-1.0742-1.1211-1.9531-2.1289-1.9531-2.2422 0-0.19141 3.8203-2.082 4.7422-2.3477zm28.875 0.63672c0.039062 0.003906 0.074219 0.015625 0.10938 0.039062 0.32812 0.1875 3.9648 3.9883 3.9648 4.1367 0 0.042969-0.875 0.91016-1.9414 1.9297l-1.9375 1.8516-2.0586-2.1211c-1.1328-1.1641-2.0547-2.1875-2.0547-2.2695s0.83203-0.95312 1.8516-1.9336c1.3281-1.2812 1.793-1.6641 2.0703-1.6328zm9.8828 0.37891 2.0469 2.1328c1.1289 1.1719 2.043 2.2188 2.043 2.3203 0 0.10547-0.8125 0.96875-1.8008 1.918-0.98828 0.94922-1.8867 1.7266-1.9922 1.7266-0.10938 0-1.1172-0.96875-2.2383-2.1445l-2.043-2.1367 3.9844-3.8203zm9.6016 1.6523 1.3203 0.67578c0.83984 0.42969 1.6406 1.0273 2.1914 1.6445 0.48047 0.53516 0.86719 1.0234 0.86719 1.0898s-0.80469 0.94922-1.7852 1.9648c-1.3906 1.4414-1.8477 1.8125-2.0859 1.6758-0.44141-0.25-3.5-3.4141-3.7227-3.8555-0.03125-0.078125-0.058594-0.15234-0.058594-0.22656 0-0.23047 0.20312-0.50781 0.75391-1.1133 0.48438-0.53125 0.99609-0.96094 1.1406-0.96094 0.14062 0 0.50781-0.19531 0.81641-0.44531l0.55859-0.44922zm-54.523 0.53516c0.53516 0.050781 0.97656 0.64453 2.1445 1.8633 1.1133 1.1602 2.0195 2.2188 2.0195 2.3594 0 0.13672-0.76172 1-1.6875 1.9219s-1.8281 1.668-2 1.668c-0.26562-0.003906-4.5391-4.3594-4.9258-5.0195v-0.027344c0.023437-0.16797 0.71094-0.70312 1.7656-1.3633 1.5273-0.95703 2.1523-1.4492 2.6836-1.3984zm10.184 0.50781 2.043 2.125c1.1211 1.168 2.0391 2.1719 2.0391 2.2266 0 0.058594-0.875 0.9375-1.9453 1.9609l-1.9453 1.8594-1.957-2.0391c-1.0781-1.1211-1.9531-2.1602-1.9531-2.3086 0-0.28906 1.1641-1.5312 2.7461-2.9492l0.97656-0.875zm9.9453 0.85547c0.26172 0.003906 4.0352 3.9219 4.0352 4.1797 0 0.10547-0.8125 0.96875-1.8008 1.918-0.98828 0.94922-1.8867 1.7266-1.9922 1.7266-0.25781-0.003906-4.0117-3.9453-4.0117-4.2031 0-0.26562 3.5039-3.625 3.7695-3.625zm9.9258 0.59375c0.1875 0.003906 4.1953 4.1016 4.1953 4.2852 0 0.054688-0.87891 0.9375-1.9492 1.9609l-1.9453 1.8555-1.8789-1.9453c-1.0312-1.0703-1.9492-2.0781-2.0391-2.25-0.023437-0.027344-0.023437-0.0625-0.023437-0.10156 0.007812-0.26953 0.44922-0.79688 1.6562-2.0117 0.98828-0.99219 1.8789-1.8008 1.9805-1.8008zm9.9922 0.50781 2.0508 2.1367c1.1289 1.1758 2.0469 2.2227 2.0469 2.3281 0 0.10547-0.8125 0.96875-1.8008 1.918-0.98828 0.94922-1.8906 1.7266-2.0039 1.7266-0.30469-0.003906-4-3.9922-4-4.3047 0-0.14844 0.83984-1.0625 1.8555-2.0352l1.8477-1.7656zm21.234 0.77344c0.17188-0.16797 4.6133 2.8203 4.6133 3.0977 0 0.089844-0.17188 0.35938-0.375 0.60156l-0.375 0.44141-1.9727-2.0312c-1.0859-1.1172-1.9414-2.0664-1.8906-2.1094zm-11.09 0.015625 1.9297 2.1133c1.0586 1.1641 1.9219 2.207 1.9219 2.3203s-0.41797 0.57031-0.92578 1.0156c-0.50781 0.44531-1.3633 1.2227-1.9023 1.7305l-0.98047 0.92578-1.9961-2.0391c-1.0977-1.1211-1.9922-2.1406-1.9922-2.2656 0.007812-0.375 1.6602-2.1094 2.8398-2.9805l1.1094-0.82031zm-55.82 0.22266 2.4648 2.582c1.3555 1.418 2.4648 2.6719 2.4648 2.7852s-0.75391 0.97656-1.6758 1.918-1.8203 1.7031-1.9922 1.7031c-0.17188-0.003907-1.4883-1.2422-2.9219-2.7461l-2.6094-2.7344 1.0703-0.95312c0.58594-0.52344 1.5469-1.3125 2.1328-1.7539zm65.707 0.39453 4.1328 4.3672-1.9805 1.8945-1.9805 1.8984-1.5352-1.5508c-1.9766-1.9922-2.5312-2.6484-2.4883-2.9688 0-0.023438 0-0.027344 0.015625-0.058594 0.058594-0.14062 0.94531-1.0039 1.9727-1.918l1.8633-1.6602zm-54.773 1.2852 2.0508 2.1328c1.1289 1.1719 2.0469 2.1758 2.0469 2.2344 0 0.054688-0.87891 0.9375-1.9492 1.9609l-1.9453 1.8594-1.8711-1.9453c-1.0273-1.0703-1.9492-2.0898-2.043-2.2656-0.03125-0.0625-0.050781-0.12109-0.050781-0.1875 0.023437-0.29688 0.57422-0.82422 2.8711-2.9609l0.89453-0.83203zm9.9805 0.875c0.24219 0 4.0117 3.9258 4.0117 4.1758 0 0.10547-0.8125 0.96875-1.7969 1.918-0.98828 0.94922-1.8867 1.7266-1.9961 1.7266-0.29297-0.003907-4.0078-3.9609-4.0078-4.2578 0-0.28516 3.4922-3.5625 3.7891-3.5625zm10.012 0.51953 1.9492 2.0273c1.0742 1.1172 1.9453 2.1602 1.9453 2.3242 0 0.16016-0.82812 1.0781-1.8359 2.0391l-1.8242 1.7422-2.0742-2.1055c-1.1406-1.1562-2.0703-2.168-2.0703-2.2461 0-0.14062 2.6328-2.7305 3.4727-3.4219zm9.8867 0.57812 2.0508 2.1367c1.1289 1.1758 2.0508 2.2227 2.0508 2.3242 0 0.10547-0.8125 0.96875-1.8047 1.918-0.98828 0.94922-1.8828 1.7227-1.9922 1.7227-0.3125-0.003906-4.0156-3.9688-4.0078-4.2891 0-0.15625 0.83984-1.082 1.8555-2.0508l1.8516-1.7656zm32.418 0.44141c0.066406 0 0.12891 0.011718 0.18359 0.027343 0.16797 0.050781 1.1211 0.73828 2.1133 1.5352 1.1914 0.95312 1.8047 1.5742 1.8047 1.8203 0 0.20312-0.28516 0.64844-0.62891 0.98828-0.34375 0.33984-0.71875 0.60938-0.83203 0.60938-0.11719 0-1.0742-0.92188-2.1328-2.043-1.2305-1.3008-1.8125-2.0352-1.8125-2.2852 0-0.015625 0.007813-0.042969 0.007813-0.042969 0.125-0.30859 0.83594-0.61719 1.3008-0.60547zm-78.57 0.50781c0.28906-0.082031 0.75781 0.35938 2.8203 2.5078 1.4297 1.4883 2.5898 2.832 2.5898 2.9844 0 0.14844-0.78906 1.0156-1.7461 1.918-0.95703 0.90625-1.8398 1.6406-1.9609 1.6406-0.30469-0.003906-5.0234-5.0312-5.0234-5.3398 0-0.24219 2.5273-3.1133 3.2031-3.6484 0.039062-0.027344 0.074219-0.050781 0.11719-0.0625zm56.258 0.050781c0.042969 0.003907 0.074219 0.023438 0.10938 0.042969 0.3125 0.18359 3.9727 3.9453 3.9727 4.082 0 0.035157-0.84766 0.85156-1.8789 1.8203s-1.9688 1.7539-2.082 1.7539c-0.26953-0.003906-4.0312-3.9297-4.0312-4.1953 0-0.11328 0.83203-0.98438 1.8438-1.9336 1.3477-1.2695 1.7891-1.6172 2.0664-1.5703zm9.793 0.60547c0.28125 0.042969 0.76562 0.51172 2.1406 1.9336 1.1289 1.1641 2.043 2.1641 2.043 2.2188 0 0.054687-0.85547 0.91797-1.9023 1.918-1.8125 1.7344-1.918 1.8047-2.3008 1.5234-0.58203-0.42578-3.7891-3.7852-3.7891-3.9648 0-0.14844 2.9219-3.0508 3.5703-3.5547 0.074219-0.058594 0.14453-0.089844 0.23828-0.074219zm10.059 0.65625c0.24609 0.003906 4.0273 3.9375 4.0273 4.1797 0 0.10547-0.8125 0.96875-1.7969 1.9219-0.98828 0.94922-1.8867 1.7227-1.9961 1.7227-0.25-0.003907-4.0117-3.9375-4.0117-4.1836 0-0.23828 3.543-3.6367 3.7773-3.6367zm-64.688 0.44922 2.0391 2.125c1.1211 1.168 2.0391 2.168 2.0391 2.2188s-0.8125 0.87109-1.8008 1.8242c-0.98828 0.94922-1.9336 1.7227-2.0977 1.7227-0.16406 0-1.168-0.92969-2.2305-2.0547l-1.9258-2.043 0.37109-0.41016c0.45703-0.50391 1.8711-1.8516 2.8633-2.7266zm9.9297 0.60547 2.0234 2.1367c1.1133 1.1758 2.0195 2.2148 2.0195 2.3086s-0.80859 0.94922-1.7969 1.8984c-0.98828 0.94922-1.8867 1.7266-1.9922 1.7266-0.25391-0.003906-4.0117-3.9883-4.0117-4.2461 0-0.10938 0.85156-1.0156 1.8828-2.0117zm9.9414 0.97266c0.28125 0.042968 0.76172 0.50391 2.1484 1.9297 1.1289 1.1602 2.0469 2.1602 2.0469 2.2188 0 0.058594-0.87891 0.94531-1.9492 1.9688l-1.9453 1.8555-2.0508-2.1367c-1.1289-1.1758-2.0469-2.1953-2.0469-2.2734 0-0.14062 2.9492-3.0312 3.5586-3.4883 0.074218-0.058593 0.14844-0.089843 0.24219-0.074218zm9.9727 0.36719 2.0586 2.1406c1.1328 1.1758 2.0547 2.2266 2.0547 2.3281 0 0.10547-0.8125 0.96875-1.8008 1.918s-1.8867 1.7227-1.9922 1.7227c-0.28125-0.003906-4.0117-3.9688-4.0117-4.2578 0-0.13281 0.83594-1.0547 1.8477-2.0469zm43.121 0.53125c0.38672 0.066407 0.79297 0.41797 2.0586 1.5898 1.7773 1.6445 1.8008 1.6797 1.5781 2.2344-0.125 0.30859-0.55469 0.87109-0.95312 1.2461l-0.72656 0.68359-1.8867-1.9336c-1.0391-1.0625-1.9609-2.0703-2.0469-2.2383-0.03125-0.058593-0.03125-0.12891-0.03125-0.19922 0.042969-0.50391 0.87891-1.2695 1.6055-1.3711 0.15625-0.023438 0.28125-0.035156 0.41406-0.011719zm-33.125 0.35156c0.16016 0 4.207 4.082 4.207 4.2344 0 0.027343-0.85156 0.84766-1.8945 1.8203-1.043 0.97266-1.9805 1.7656-2.0859 1.7656-0.25-0.003906-4.0156-3.9336-4.0156-4.1797 0-0.25 3.5391-3.6445 3.7891-3.6445zm-55.742 0.41406c0.13281-0.078125 1.2188 0.91016 2.707 2.4609 1.9336 2.0156 2.4492 2.6602 2.3164 2.8945-0.09375 0.16797-0.92188 0.99219-1.8359 1.8359-0.91406 0.84375-1.7578 1.5273-1.8711 1.5273-0.27734-0.003906-4.2812-4.1875-4.2812-4.4648 0-0.26953 2.6602-4.0703 2.9648-4.25zm65.719 0.18359c0.14453 0 4.1328 4.1406 4.1328 4.2852 0 0.054688-0.87891 0.94141-1.9492 1.9609l-1.9492 1.8555-1.6914-1.75c-0.92969-0.96094-1.8516-1.9766-2.043-2.2539l-0.35156-0.50781 1.8633-1.7969c1.0273-0.98828 1.918-1.793 1.9844-1.793zm10.016 0.78516c0.25 0.003906 4.0156 3.9297 4.0156 4.1797 0 0.10547-0.8125 0.96875-1.8008 1.918-0.98828 0.94922-1.8867 1.7227-1.9961 1.7227-0.25-0.003907-4.0078-3.9375-4.0078-4.1836s3.543-3.6367 3.7891-3.6367zm-64.711 0.4375 2.043 2.1328c1.125 1.1719 2.0469 2.1758 2.0469 2.2305 0 0.054687-0.85547 0.91406-1.9023 1.9102l-1.8984 1.8086-4.2656-4.2656 0.47266-0.5c0.45312-0.47656 1.6133-1.5859 2.8945-2.7617l0.60156-0.55078zm74.707 0.10156 2.0547 2.1211c1.1289 1.1641 2.0547 2.1641 2.0547 2.2227 0 0.058593-0.87891 0.94141-1.9492 1.9609l-1.9453 1.8555-1.6914-1.7461c-0.92969-0.96094-1.8516-1.9805-2.043-2.2578l-0.35156-0.50781 1.4102-1.3789c0.77344-0.75781 1.6445-1.5781 1.9375-1.8203l0.53125-0.44531zm-64.805 0.76562c0.29688 0.003906 4.0859 3.8906 4.0859 4.1836 0 0.10547-0.8125 0.96875-1.8008 1.918-0.98828 0.94922-1.875 1.7227-1.9688 1.7227-0.26562-0.003906-4.0352-3.957-4.0352-4.2227 0-0.32812 3.3945-3.6016 3.7188-3.6016zm10.02 0.59766c0.16016 0 4.1562 4.125 4.1562 4.2852 0 0.054688-0.875 0.9375-1.9453 1.9609l-1.9453 1.8555-4.1406-4.3828 0.83984-0.88281c1.2969-1.3633 2.8789-2.8398 3.0391-2.8398zm10.004 0.78516c0.27734 0.003906 4.0508 3.9141 4.0508 4.1875 0 0.10938-0.83203 0.98828-1.8438 1.957l-1.8438 1.7539-0.42969-0.37109c-1.2695-1.0977-3.6875-3.7305-3.6875-4.0078 0-0.35156 3.3945-3.5195 3.7539-3.5195zm53.223 0.44141 1.8203 1.8672c1.0664 1.0938 1.7734 1.9727 1.7188 2.1211-0.058594 0.14062-0.10547 0.33203-0.10547 0.42969 0 0.26172-1.3828 1.6641-1.6289 1.6641-0.33203-0.003906-4.043-3.9531-4.0352-4.293 0.007812-0.36719 0.86719-1.1562 1.6562-1.5234l0.57812-0.26953zm-43.285 0.15625c0.23438 0.003907 4.0156 3.9258 4.0156 4.1602 0 0.09375-0.76172 0.93359-1.6914 1.875-0.92969 0.9375-1.8125 1.7383-1.9688 1.7656-0.27734 0.058594-3.625-3.2461-3.9922-3.9414-0.023438-0.058594-0.039063-0.11719-0.039063-0.18359 0.015625-0.28516 0.41016-0.71484 1.6719-1.9297 1-0.96094 1.9023-1.7461 2.0078-1.7461zm10.004 0.50781 2.0547 2.1367c1.1289 1.1758 2.0508 2.1836 2.0508 2.2383s-0.875 0.93359-1.9453 1.957l-1.9414 1.8555-2.0938-2.1875-2.0938-2.1914 3.9688-3.8047zm9.9766 0.69922 2.0195 2.0859c1.1094 1.1484 1.9922 2.1875 1.9609 2.3203-0.03125 0.12891-0.83594 0.99219-1.7891 1.918-0.95312 0.92578-1.8203 1.6836-1.9219 1.6836-0.25781-0.003906-4.0469-3.9219-4.0469-4.1719 0-0.10938 0.85547-1.0156 1.8906-2.0156l1.8867-1.8164zm-74.75 0.22656c0.21094-0.066406 0.70703 0.38281 2.1719 1.9062l2.0469 2.1289-0.58594 0.71094c-0.32422 0.39062-1.1641 1.2148-1.8672 1.832-0.70312 0.61719-1.3594 1.1211-1.457 1.1211-0.31641-0.003906-2.7656-2.6094-2.7578-2.9297 0-0.28906 1.9102-4.0625 2.3711-4.707 0.015625-0.027344 0.050781-0.050781 0.074219-0.058594zm10.051 0.39062 2.043 2.1289c1.125 1.1719 2.043 2.1758 2.043 2.2305 0 0.054688-0.87109 0.92969-1.9297 1.9375l-1.9219 1.8359-4.1719-4.3438 0.56641-0.60156c0.69922-0.73828 2.1328-2.1211 2.8398-2.7383l0.52734-0.45703zm74.695 0.11328 2.1055 2.1641 2.1016 2.1641-3.9844 3.8203-2.0508-2.1367c-1.1289-1.1758-2.0508-2.1875-2.0508-2.25 0-0.125 2.7812-2.8789 3.4492-3.418l0.42578-0.34375zm-64.793 0.75c0.30078 0.003907 4.082 3.8906 4.082 4.1875 0 0.10938-0.83203 0.98828-1.8438 1.957-1.0156 0.96875-1.8867 1.7188-1.9336 1.6719-2.3945-2.3086-4.0234-4.0039-4.0234-4.1758 0-0.31641 3.4102-3.6406 3.7188-3.6406zm74.699 0.082032c0.30078 0.003906 4.1094 3.8867 4.1094 4.1836 0 0.10156-0.80859 0.96484-1.7969 1.918-0.98828 0.94922-1.8867 1.7266-1.9922 1.7266-0.3125-0.003907-4.0078-3.9688-4.0078-4.2891 0-0.36328 3.3281-3.5352 3.6914-3.5352zm-64.688 0.51562c0.21484 0.003906 4.1719 4.1562 4.1133 4.3164-0.023438 0.070313-0.67578 0.74609-1.4414 1.4961s-1.6133 1.5664-1.8906 1.8125l-0.50391 0.44531-2.0547-2.1133c-1.1328-1.1641-2.0547-2.1758-2.0547-2.2539 0-0.1875 3.6484-3.7031 3.8359-3.7031zm9.9688 0.51172 2.0469 2.1328c1.125 1.1719 2.043 2.2227 2.043 2.3281 0 0.10938-0.82422 0.98047-1.8281 1.9375-1.5742 1.5-1.8711 1.7109-2.1758 1.5273-0.19531-0.11719-1.1875-1.0898-2.2109-2.1602l-1.8555-1.9492 3.9844-3.8203zm9.9688 0.86719c0.27734 0.003906 4.0156 3.9453 4.0156 4.2266 0 0.12891-0.80078 0.97266-1.7734 1.8711-0.97266 0.89844-1.8555 1.6719-1.9648 1.7031-0.22266 0.074219-4.0664-3.8633-4.0664-4.1562 0-0.25 3.543-3.6445 3.7891-3.6445zm10.004 0.50781 2.0547 2.1367c1.1289 1.1758 2.0508 2.1836 2.0508 2.2383 0 0.054687-0.86328 0.92578-1.9219 1.9336l-1.918 1.832-2.125-2.1523-2.125-2.1484 1.9922-1.9219zm43.168 0.25391c0.074218 0 3.2656 3.8945 3.2656 3.9805 0 0.011719-0.17969 0.37891-0.40234 0.80859-0.73047 1.4297-0.86328 1.3867-3.1172-0.97266l-2.0156-2.1094 0.44922-0.60156c0.36719-0.49219 1.3906-1.1016 1.8203-1.1016zm-33.18 0.62109c0.10547 0 1.0938 0.94531 2.1992 2.0938l2.0078 2.0898-1.8945 1.8203c-1.043 1.0039-1.957 1.8203-2.0312 1.8203-0.21094-0.003906-3.6953-3.5234-3.9141-3.957-0.03125-0.058594-0.050782-0.12109-0.050782-0.1875 0.007813-0.28906 0.39453-0.70703 1.6719-1.9375 1-0.96094 1.9023-1.7422 2.0078-1.7422zm-64.707 0.44141 2.043 2.1289c1.125 1.1719 2.043 2.1719 2.043 2.2305 0 0.054687-0.875 0.93359-1.9414 1.9492l-1.9375 1.8516-4.1406-4.3828 0.65625-0.6875c0.35938-0.37891 1.2461-1.2305 1.9648-1.8906zm74.629 0.26562c0.27734 0.035156 0.72656 0.46875 2.0547 1.8477 1.0703 1.1133 1.9414 2.1562 1.9414 2.3203 0 0.16016-0.83594 1.0859-1.8555 2.0586l-1.8516 1.7656-2.0508-2.1367c-1.1289-1.1758-2.0469-2.1836-2.0469-2.2422 0-0.12891 3.0742-3.1719 3.5664-3.5312 0.082031-0.058594 0.15234-0.09375 0.24609-0.082031zm-64.656 0.40234 2.0078 2.0898c1.1055 1.1484 2.0039 2.1758 2.0039 2.2812 0 0.10547-0.8125 0.96875-1.8047 1.918-0.98828 0.95312-1.875 1.7266-1.9688 1.7266-0.24219-0.003907-4.0312-4.0391-4.0312-4.2852 0-0.11328 0.85547-0.99609 1.8984-1.9648zm74.652 0.27344c0.27734 0.003906 4.0859 3.9141 4.0859 4.1836 0 0.10156-0.8125 0.96484-1.8008 1.918-0.98828 0.94922-1.8867 1.7266-1.9922 1.7266-0.3125-0.003906-4.0156-3.9688-4.0078-4.2891 0-0.33594 3.375-3.5352 3.7148-3.5352zm-92.918 0.39062c0.18359 0 0.51562 0.29297 1.2578 1.0625 1.3789 1.4258 1.4102 1.1484-0.33203 2.9258-0.48828 0.49609-1.2148 1.1562-1.6172 1.4648-0.60938 0.46484-0.77734 0.51953-1.0156 0.3125-0.13281-0.11328-0.19531-0.25781-0.19531-0.46094v-0.089843c0.007813-0.085938 0.023438-0.17578 0.050782-0.28125 0.20312-0.875 1.4883-4.5195 1.707-4.8438 0.039063-0.058594 0.085937-0.089844 0.14453-0.089844zm28.191 0.12891c0.17578 0.003907 4.1758 4.1133 4.1758 4.2852 0 0.054687-0.875 0.9375-1.9414 1.957l-1.9414 1.8516-2.0742-2.1875c-1.4961-1.582-1.9141-2.0586-1.8867-2.3359 0-0.066406 0.03125-0.11719 0.074218-0.17188 0.54297-0.66406 3.4375-3.3945 3.5898-3.3945zm74.699 0.082031c0.1875 0 4.1992 4.0938 4.1992 4.2891 0 0.054687-0.87109 0.93359-1.9453 1.957l-1.9453 1.8555-2.0508-2.1328c-1.1289-1.1758-2.0469-2.2227-2.0469-2.3281 0-0.25 3.543-3.6445 3.793-3.6445zm-64.711 0.70703c0.29688 0.003906 4.082 3.8906 4.082 4.1797 0 0.10547-0.8125 0.96875-1.7969 1.918-0.98828 0.94922-1.8867 1.7266-1.9961 1.7266-0.31641-0.003906-4.0156-3.9727-4.0078-4.2969 0.007812-0.35938 3.3516-3.5273 3.7188-3.5273zm9.957 0.59766c0.17578 0.003906 4.2109 4.0781 4.2109 4.25 0 0.039062-0.85547 0.85547-1.8984 1.8203-1.043 0.96484-1.957 1.75-2.0391 1.75-0.20312 0-3.6914-3.5352-3.9023-3.957-0.03125-0.054687-0.042969-0.11328-0.03125-0.17969 0.03125-0.28516 0.4375-0.74219 1.6562-1.9336 0.99219-0.96875 1.8906-1.7578 2.0039-1.7578zm10.004 0.50781 2.0547 2.1367c1.1289 1.1758 2.0508 2.1836 2.0508 2.2383 0 0.054688-0.87891 0.9375-1.9492 1.957l-1.9453 1.8594-4.1875-4.375 3.9844-3.8203zm9.9961 0.875c0.25781 0.003907 4.0156 3.9375 4.0156 4.1953 0 0.11328-0.79297 0.95703-1.7578 1.8711-0.96484 0.91797-1.8477 1.6992-1.9648 1.7344-0.23438 0.074218-4.082-3.8555-4.082-4.1562 0-0.25 3.543-3.6445 3.7891-3.6445zm42.602 0.55469c0.042968-0.003906 0.074218 0 0.082031 0.015625 0.015625 0.035156 0.28906 0.41016 0.59766 0.83594 0.83984 1.1562 2.2812 3.4141 2.2734 3.5508 0 0.066406-0.13281 0.27344-0.28125 0.46484-0.37891 0.47656-0.64062 0.29297-2.7109-1.9141-1.1602-1.2383-1.5469-1.6875-1.5664-1.9492 0-0.085937 0.03125-0.15625 0.085937-0.22266 0.21875-0.25391 1.2148-0.74609 1.5156-0.77734zm-107.4 0.078125c0.27734 0.039063 0.75 0.49609 2.1406 1.9414 1.1211 1.168 2.0352 2.168 2.0352 2.2266 0 0.054687-0.87109 0.92969-1.9297 1.9453l-1.9297 1.8438-1.8984-1.9297c-1.043-1.0586-1.9648-2.0586-2.0508-2.2227-0.015625-0.027343-0.015625-0.0625-0.015625-0.09375 0.007813-0.25391 0.42578-0.75 1.4688-1.7812 0.87891-0.87109 1.7539-1.6992 1.9414-1.8477 0.074219-0.058594 0.14844-0.09375 0.24219-0.082031zm74.727 0.082031c0.28125 0.035156 0.74609 0.49219 2.1406 1.9414 1.1211 1.168 2.0391 2.168 2.0391 2.2266 0 0.054687-0.87891 0.9375-1.9492 1.9609l-1.9492 1.8555-2.0508-2.1367c-1.1289-1.1758-2.0469-2.1836-2.0469-2.2422 0-0.125 3.043-3.125 3.5703-3.5273 0.082032-0.058593 0.15234-0.09375 0.24609-0.082031zm-64.656 0.39844 2.0078 2.0898c1.1055 1.1484 2.0039 2.1758 2.0039 2.2812 0 0.10547-0.8125 0.96875-1.8008 1.918-0.98828 0.94922-1.8711 1.7266-1.9648 1.7266-0.26562-0.003907-4.0391-4.0117-4.0391-4.2812 0-0.13672 0.85937-1.0312 1.8984-1.9922l1.8906-1.7422zm74.625 0.26953c0.31641 0.003906 4.1133 3.875 4.1133 4.1836 0 0.10547-0.8125 0.96875-1.8008 1.918-0.98828 0.94922-1.8867 1.7227-1.9961 1.7227-0.28906-0.003906-4.0078-3.957-4.0078-4.2461 0-0.35156 3.3438-3.5781 3.6914-3.5781zm-64.609 0.44531 2.043 2.1289c1.125 1.168 2.043 2.1719 2.043 2.2266 0 0.054688-0.86719 0.92969-1.9258 1.9375l-1.9219 1.8359-2.0938-2.1602-2.0977-2.1602 0.63281-0.70703c0.60547-0.67188 1.9727-1.9688 2.8906-2.7422zm74.605 0.15234c0.1875 0.003907 4.2031 4.0977 4.2031 4.2891 0 0.054687-0.875 0.93359-1.9453 1.957l-1.9453 1.8594-2.0508-2.1367c-1.1289-1.1758-2.0469-2.2227-2.0469-2.3281 0-0.24609 3.5391-3.6445 3.7852-3.6445zm10.012 0.50391 2.0469 2.1406c1.1289 1.1758 2.0469 2.2188 2.0469 2.3125s-0.82422 0.95703-1.8242 1.918c-1.0039 0.95703-1.8984 1.7383-1.9922 1.7383-0.089843 0-1.0898-0.96875-2.2148-2.1484l-2.043-2.1445 1.9922-1.9102 1.9922-1.9062zm-74.734 0.20312c0.30859 0.003907 4.1016 3.8789 4.1016 4.1836 0 0.10547-0.8125 0.96875-1.8008 1.918s-1.8828 1.7227-1.9883 1.7227c-0.26953-0.003906-4.0117-4.0703-4.0117-4.3477 0-0.32812 3.3633-3.4766 3.6992-3.4766zm9.9883 0.59766c0.30469 0.003906 4.0391 3.9727 3.9727 4.2227-0.03125 0.125-0.83594 0.98828-1.7852 1.918-0.94922 0.92969-1.8281 1.6836-1.9492 1.6836-0.19531 0-2.4961-2.3711-3.6523-3.7578l-0.45312-0.53906 1.8398-1.7656c1.0078-0.97266 1.9219-1.7617 2.0234-1.7617zm10.004 0.50391 2.0508 2.1367c1.1289 1.1758 2.0508 2.1797 2.0508 2.2383 0 0.054687-0.87109 0.92969-1.9297 1.9414l-1.9258 1.8359-4.2422-4.3125 3.9922-3.8359zm9.9648 0.87891c0.24219 0.003907 4.0312 3.9453 4.0312 4.1836 0 0.10547-0.80469 0.96875-1.7812 1.918-0.97656 0.94922-1.875 1.7188-2 1.7188-0.25781-0.003906-4.0234-3.9453-4.0234-4.2031 0-0.22266 3.5508-3.6211 3.7734-3.6211zm-64.691 0.51562c0.14844 0 4.0859 4.1289 4.0859 4.2773 0 0.050781-0.85547 0.91406-1.8945 1.9141l-1.8945 1.8203-1.2617-1.3086c-0.88672-0.91797-1.2266-1.2695-1.2266-1.9727 0-0.42188 0.11328-0.96875 0.30078-1.8398 0.26953-1.2578 0.42188-1.582 1.0391-2.1875 0.39844-0.39062 0.78125-0.70703 0.85547-0.70703zm74.625 0.078125c0.17969 0 4.1875 4.1094 4.1875 4.2852 0 0.054687-0.86328 0.92187-1.9141 1.9258l-1.9102 1.8242-1.7148-1.6836c-0.94141-0.92578-1.875-1.9219-2.0703-2.2109l-0.35547-0.52734 1.8008-1.8086c0.99219-0.99609 1.8828-1.8047 1.9766-1.8047zm-64.676 0.49219 2.1133 2.1992 2.1094 2.1992-1.8945 1.8242c-1.043 1-1.9766 1.8164-2.0742 1.8164-0.24609-0.003906-4.0234-4.0664-4.0234-4.3203 0-0.11328 0.85156-0.99219 1.8867-1.9609zm74.664 0.015625 2.0508 2.1367c1.1289 1.1758 2.0469 2.2227 2.0469 2.3242 0 0.10547-0.8125 0.96875-1.8008 1.918s-1.8867 1.7266-1.9961 1.7266-1.0664-0.91406-2.125-2.0273c-1.3789-1.4453-1.8398-2.0273-1.8164-2.3203v-0.054687c0.066406-0.19531 0.91406-1.1094 1.875-2.0312l1.7539-1.6719zm-64.629 0.71875 2.043 2.1289c1.125 1.1719 2.043 2.1758 2.043 2.2305 0 0.054687-0.86328 0.92969-1.918 1.9336l-1.918 1.8281-2.082-2.1211c-1.1445-1.168-2.0781-2.168-2.0781-2.2227 0-0.10938 2.5039-2.5742 3.375-3.3242l0.53125-0.45703zm74.633 0.27344c0.28516 0.042969 0.76172 0.50391 2.1445 1.9453 1.1211 1.168 2.0391 2.1641 2.0391 2.2188 0 0.050781-0.8125 0.875-1.8008 1.8242-0.98828 0.94922-1.9258 1.7227-2.082 1.7227-0.32031-0.003907-4.1094-3.875-4.1094-4.1875 0-0.1875 2.8203-2.9141 3.5664-3.4492 0.082031-0.054688 0.15234-0.085938 0.24609-0.070312zm21.434 0.15625c0.24609 0.003907 0.57422 0.32812 0.92969 0.92578 0.77734 1.3008 0.6875 1.3672-0.38281 0.29297-0.64062-0.64453-0.91797-0.96094-0.89453-1.1094 0.015625-0.078125 0.13281-0.10547 0.34766-0.10547zm-86.16 0.17578 2.043 2.125c1.1211 1.168 2.0391 2.2109 2.0391 2.3164s-0.8125 0.96875-1.8008 1.918c-0.98828 0.94922-1.8711 1.7266-1.9609 1.7266-0.27344-0.003906-4.0391-4.0469-4.0391-4.332 0-0.14453 0.83984-1.0469 1.8633-2.0078l1.8594-1.7461zm74.695 0.054688 2.082 2.1836c1.8672 1.9648 2.0586 2.2188 1.8125 2.5078-0.15234 0.17578-0.96875 1.0195-1.8203 1.8711-0.85156 0.85547-1.6445 1.5469-1.7617 1.5469-0.29688-0.003906-4.0078-3.9805-4.0078-4.2852 0-0.13672 0.83594-1.0508 1.8477-2.0391l1.8438-1.793zm-64.734 0.80078c0.14062 0 4.207 4.0703 4.207 4.207 0 0.011719-0.83203 0.8125-1.8477 1.7734-1.0156 0.96484-1.9375 1.7852-2.0469 1.8125-0.19922 0.0625-4.0977-3.9414-4.0977-4.2031 0-0.21484 3.5703-3.5938 3.7852-3.5938zm74.754 0.082031c0.23047 0.003907 3.9883 4 3.9883 4.2305 0 0.074219-0.8125 0.91406-1.8008 1.8672-0.98828 0.94922-1.8828 1.7227-1.9883 1.7227-0.25-0.003906-4.0156-3.9297-4.0156-4.1797 0-0.26563 3.5508-3.6445 3.8164-3.6445zm-64.758 0.42188 2.0508 2.1367c1.1289 1.1758 2.0391 2.2227 2.0234 2.3281s-0.89453 0.98828-1.9531 1.957l-1.9219 1.7656-4.1797-4.3672 3.9844-3.8203zm9.9883 0.6875 2.0078 2.0898c1.1055 1.1484 2.0039 2.1797 2.0039 2.2812 0 0.10547-0.8125 0.96875-1.8047 1.918-0.98828 0.94922-1.8867 1.7227-1.9922 1.7227-0.25-0.003906-4.0117-3.9375-4.0117-4.1836 0-0.10156 0.85547-1.0039 1.8984-2.0078l1.8945-1.8242zm10.02 0.72656 2.0391 2.125c1.1211 1.168 2.043 2.1719 2.043 2.2266 0 0.054688-0.875 0.9375-1.9492 1.957l-1.9453 1.8555-2.0469-2.1367c-1.125-1.1758-2.0508-2.1875-2.0508-2.2461 0-0.14453 1.8203-1.9609 2.9766-2.9688l0.92969-0.80859zm-64.797 0.57422 0.67969 0.64453c1.3242 1.2578 3.375 3.5312 3.375 3.7305 0 0.11328-0.83203 0.99219-1.8438 1.957l-1.8359 1.7539-0.89844-0.86328c-1.2227-1.1719-3.2227-3.3555-3.2227-3.5117 0-0.070312 0.84375-0.93359 1.875-1.918l1.875-1.793zm74.699 0.011719 2.043 2.125c1.1211 1.168 2.0391 2.2109 2.0391 2.3164 0 0.10547-0.8125 0.96875-1.8008 1.918-0.98828 0.94922-1.8828 1.7266-1.9922 1.7266-0.31641-0.003906-4.0156-3.9727-4.0078-4.2969 0-0.16406 0.84375-1.082 1.8672-2.043l1.8594-1.7461zm-64.641 0.70312 2.043 2.1289c1.125 1.1719 2.043 2.1758 2.043 2.2305 0 0.054687-0.87109 0.93359-1.9336 1.9453l-1.9336 1.8438-2.0625-2.125c-1.1367-1.168-2.0625-2.1719-2.0625-2.2305 0-0.12109 2.7969-2.8906 3.4648-3.4336l0.44531-0.35938zm74.633 0.15234c0.16016 0 4.1797 4.1016 4.1797 4.2578 0 0.039062-0.80469 0.86328-1.7891 1.8242-0.98438 0.96094-1.9336 1.7383-2.1055 1.7383-0.31641-0.003907-4.0977-3.9219-4.0977-4.2344 0-0.21484 3.5938-3.5898 3.8125-3.5898zm-64.762 0.41797 2.0547 2.1367c1.1328 1.1758 2.0508 2.2266 2.0508 2.3359s-0.83203 0.98828-1.8438 1.957l-1.8398 1.7539-0.42578-0.37891c-1.125-1.0039-3.6914-3.7852-3.6914-3.9922 0-0.13281 0.83594-1.0391 1.8477-2.0234l1.8438-1.793zm74.738 0.085937 2.0547 2.1367c1.1289 1.1758 2.0469 2.2227 2.0469 2.3242s-0.83203 0.96875-1.8477 1.918c-1.0156 0.95312-1.918 1.7266-2.0039 1.7266-0.085937 0-1.0703-0.97266-2.1875-2.1562l-2.0273-2.1484 1.9844-1.9023 1.9805-1.9023zm-102.09 0.75781c0.16016 0.011719 0.40234 0.23438 0.76953 0.60938 0.44531 0.45703 0.80859 0.88672 0.80859 0.94531 0 0.0625-0.44141 0.52344-0.97656 1.0273l-0.97266 0.91797 0.03125-1.5508c0.03125-1.4102 0.066406-1.9727 0.33594-1.9531zm37.375 0.039063c0.089844 0 1.0625 0.9375 2.1602 2.082 2.3125 2.4062 2.3438 1.9219-0.26563 4.3281-1.4336 1.3203-1.6289 1.4453-1.9297 1.1992-0.64844-0.52344-3.7812-3.8633-3.7812-4.0273 0-0.21094 3.5977-3.5859 3.8125-3.5859zm74.703 0.082031c0.25 0.003906 4.0156 3.9297 4.0156 4.1797 0 0.10547-0.8125 0.96875-1.8008 1.918s-1.8867 1.7266-1.9961 1.7266c-0.25-0.003907-4.0117-3.9375-4.0117-4.1875 0-0.24609 3.5469-3.6367 3.7891-3.6367zm-64.727 0.42578 2.0547 2.1367c1.1289 1.1758 2.0391 2.2227 2.0234 2.3281-0.015625 0.10547-0.89453 0.98438-1.9453 1.9492l-1.9141 1.7539-2.0547-2.2188-2.0586-2.2188 3.8984-3.7344zm74.617 0.15625 0.42578 0.44531c0.39063 0.41016 2.4375 4.3047 2.4375 4.6367 0 0.082031-0.21094 0.46484-0.47266 0.84766-0.25781 0.38672-0.83203 1.0352-1.2734 1.4414l-0.80469 0.74219-2.0664-2.1836-2.0664-2.1875 0.63281-0.69922c0.34766-0.38672 1.207-1.2305 1.9102-1.875l1.2734-1.1719zm-64.637 0.71875c0.25 0.003906 4.0156 3.9297 4.0156 4.1797 0 0.10547-0.8125 0.96875-1.8008 1.918-0.98828 0.94922-1.8867 1.7227-1.9961 1.7227-0.25-0.003906-4.0078-3.9375-4.0078-4.1836 0-0.24609 3.543-3.6367 3.7891-3.6367zm9.9609 0.59766c0.15234 0 4.1406 4.1328 4.1406 4.2852 0 0.054688-0.87891 0.9375-1.9492 1.9609l-1.9453 1.8594-2.043-2.1406c-1.125-1.1758-2.0508-2.207-2.0508-2.2891 0-0.17969 3.6641-3.6758 3.8477-3.6758zm9.9609 0.52734 2.043 2.125c1.1211 1.168 2.0391 2.2109 2.0391 2.3164 0 0.10547-0.8125 0.96875-1.8008 1.918-0.98828 0.94922-1.8789 1.7266-1.9805 1.7266-0.30859-0.003907-4.0195-3.9766-4.0195-4.293 0-0.16406 0.83984-1.0859 1.8633-2.0469l1.8594-1.7461zm-74.668 0.17969c0.25781 0.003906 4.0195 3.9336 4.0195 4.1875 0 0.10937-0.83203 0.98828-1.8477 1.957l-1.8438 1.7578-0.51562-0.47656c-0.28516-0.26172-1.043-1.0273-1.6836-1.6992-1.1328-1.1797-1.1641-1.25-1.1484-2.1953 0.015624-0.96094 0.042968-0.99219 1.4219-2.2539 0.76953-0.70312 1.4883-1.2773 1.5977-1.2773zm9.9844 0.59766c0.20703 0.003906 4.1211 4.0781 4.1211 4.2891 0 0.054688-0.86328 0.92578-1.9219 1.9336l-1.9219 1.8359-2.0742-2.1641c-1.1406-1.1914-2.0742-2.2031-2.0742-2.2461 0-0.19531 3.6719-3.6445 3.8711-3.6445zm74.645 0.082031c0.1875 0 4.2031 4.0938 4.2031 4.2773 0 0.050781-0.8125 0.87109-1.8008 1.8242-0.98828 0.94922-1.9297 1.7227-2.0898 1.7227-0.28906-0.003906-4.1055-3.9375-4.1055-4.2227 0-0.22266 3.5664-3.6016 3.7891-3.6016zm-64.719 0.42578 2.0508 2.1367c1.1289 1.1758 2.0508 2.2227 2.0508 2.3242 0 0.10547-0.8125 0.96875-1.8047 1.918-0.98828 0.94922-1.8828 1.7266-1.9922 1.7266-0.24609 0-4.0117-4.0664-4.0117-4.3203 0-0.10547 0.83594-1 1.8555-1.9883zm74.723 0.078125 2.0547 2.1367c1.1289 1.1758 2.0469 2.207 2.0469 2.293 0 0.085937-0.82031 0.95312-1.8203 1.918-1 0.96875-1.9023 1.7578-2.0078 1.7578s-1.0938-0.97656-2.2031-2.1641l-2.0156-2.1602zm-64.742 0.79688c0.16016 0 4.207 4.082 4.207 4.2383 0 0.027343-0.84766 0.84766-1.8867 1.8203-1.0391 0.97266-1.9766 1.7617-2.0859 1.7617-0.23438-0.003907-4.0195-3.9766-4.0195-4.207 0-0.22656 3.5586-3.6133 3.7891-3.6133zm74.727 0.082032c0.25 0.003906 4.0156 3.9297 4.0156 4.1797 0 0.10547-0.8125 0.96875-1.8008 1.918-0.98828 0.94922-1.8867 1.7266-1.9922 1.7266-0.25-0.003906-4.0117-3.9375-4.0117-4.1875 0-0.24609 3.543-3.6367 3.7891-3.6367zm-64.723 0.42578 2.0508 2.1367c1.1289 1.1758 2.043 2.1797 2.043 2.2344 0 0.054688-0.074219 0.17969-0.15625 0.28516-0.082031 0.10156-0.94922 0.93359-1.9258 1.8438l-1.7773 1.6562-1.9727-2.0742c-1.0859-1.1406-1.9727-2.1797-1.9727-2.3125s0.83984-1.0312 1.8555-2.0039l1.8477-1.7656zm74.656 0.37891c0.48438 0.003906 0.96094 0.61719 2.1406 1.8477 1.1211 1.168 2.0352 2.168 2.0352 2.2266 0 0.054687-0.87891 0.9375-1.9492 1.9609l-1.9453 1.8594-1.875-1.9453c-1.0312-1.0703-1.9531-2.0898-2.0469-2.2695-0.015625-0.035156-0.03125-0.066406-0.03125-0.10156v-0.050781c0.03125-0.26953 0.41406-0.71094 1.4648-1.7344 1.2266-1.1953 1.7227-1.793 2.207-1.7891zm-64.676 0.30469 2.0078 2.0898c1.1055 1.1484 2.0039 2.1797 2.0039 2.2891s-0.83203 0.98828-1.8477 1.957l-1.8438 1.7578-0.50391-0.48047c-1.3633-1.293-3.6094-3.6602-3.6094-3.8047 0-0.089844 0.85547-0.98438 1.8984-1.9883zm10.023 0.72656 2.0391 2.1211c1.1211 1.168 2.0352 2.1641 2.0352 2.2188 0 0.050781-0.80859 0.87109-1.7969 1.8242-0.98828 0.94922-1.9141 1.7227-2.0586 1.7227-0.29297-0.003906-2.7539-2.4297-3.6016-3.543l-0.54297-0.71094 1.2227-1.1953c0.67188-0.65625 1.5547-1.4766 1.9609-1.8164zm9.8945 0.84766c0.29687 0.003907 4.082 3.8906 4.082 4.1797 0 0.10547-0.8125 0.96875-1.8008 1.918-0.98828 0.94922-1.8711 1.7266-1.9609 1.7266-0.28125-0.003906-4.0391-4.0312-4.0391-4.3203 0-0.34766 3.3672-3.5078 3.7188-3.5078zm-64.621 0.46484 2.0352 2.1172c1.1172 1.1641 2.0312 2.1641 2.0312 2.2188 0 0.054688-0.87109 0.92969-1.9297 1.9414l-1.9258 1.8398-4.1484-4.3516 0.98047-1.0664c0.53906-0.58594 1.4258-1.4336 1.9688-1.8828l0.98828-0.8125zm117.93 0.015625c0.14844 0 0.26953 0.042969 0.35547 0.14062 0.18359 0.19531 1.0703 2.418 1.7461 4.3789 0.16797 0.49219 0.11719 0.84766-0.1875 1.2266-0.27734 0.35156-0.38281 0.27344-2.3281-1.7578l-2.0352-2.125 0.71875-0.78125c0.63672-0.68359 1.2891-1.082 1.7266-1.082zm-43.344 0.10938c0.19141 0 4.2031 4.0938 4.2031 4.2852 0 0.054688-0.875 0.93359-1.9414 1.9531l-1.9336 1.8477-2.0625-2.1211c-1.1328-1.168-2.0547-2.207-2.0547-2.3164 0-0.25 3.5391-3.6484 3.7891-3.6484zm10.004 0.50781 2.0508 2.1367c1.1289 1.1758 2.0469 2.1953 2.0469 2.2656 0 0.070313-0.80859 0.9375-1.793 1.918-0.98438 0.98438-1.875 1.7852-1.9805 1.7852-0.3125-0.003906-4.0391-3.9648-4.0312-4.2852 0-0.16016 0.83984-1.0859 1.8555-2.0547l1.8477-1.7656zm-74.723 0.003906c0.23438 0.003906 4.0977 4.1289 4.0977 4.3672 0 0.125-0.83203 1.0039-1.8438 1.957-1.0469 0.98438-1.9297 1.668-2.0469 1.5938-0.30469-0.19922-3.8125-3.9805-3.8789-4.1875-0.058594-0.18359 3.4336-3.7305 3.6719-3.7305zm-17.938 0.67578 1.1211 1.1602 1.1211 1.1562-0.87109 0.83594c-0.47656 0.45703-0.92578 0.78125-0.98047 0.71875-0.14062-0.14844-0.41406-2.332-0.39844-3.207zm27.918 0.11328c0.16406 0 4.207 4.082 4.207 4.2422 0 0.035156-0.84766 0.85156-1.8828 1.8203-1.0352 0.96875-1.9375 1.7617-2.0117 1.7617-0.20312-0.003906-4.0977-3.9922-4.0977-4.1953 0-0.24219 3.5469-3.6289 3.7891-3.6289zm74.73 0.082032c0.25 0.003906 4.0156 3.9297 4.0156 4.1797 0 0.10547-0.8125 0.96875-1.7969 1.918-0.98828 0.94922-1.8867 1.7266-1.9961 1.7266-0.1875-0.003906-3.2891-3.2148-3.8203-3.957-0.058593-0.078125-0.089843-0.15234-0.082031-0.23828 0.023438-0.26562 0.42188-0.67969 1.6602-1.875 1.0078-0.96875 1.918-1.7539 2.0195-1.7539zm-64.727 0.42578 2.0547 2.1367c1.1289 1.1758 2.0234 2.1992 2 2.2773-0.023438 0.078125-0.875 0.9375-1.8789 1.9141l-1.8281 1.7734-0.67578-0.60938c-0.37109-0.33203-1.3398-1.3047-2.1523-2.1523l-1.4766-1.5469 3.9609-3.7969zm74.742 0.09375 2.0469 2.1289c1.125 1.1719 2.043 2.1758 2.043 2.2305 0 0.054687-0.875 0.9375-1.9453 1.9609l-1.9453 1.8594-1.6914-1.75c-0.92969-0.96094-1.8516-1.9766-2.043-2.2578l-0.35547-0.50781 1.4102-1.3789c0.77344-0.75781 1.6523-1.582 1.9492-1.832l0.53906-0.45312zm-64.758 0.78125c0.25 0.003906 4.0156 3.9297 4.0156 4.1797 0 0.10547-0.8125 0.96875-1.8008 1.918-0.98828 0.95312-1.875 1.7266-1.9727 1.7266-0.21094-0.003907-4.0312-4.0039-4.0312-4.2188 0-0.22266 3.5625-3.6055 3.7852-3.6055zm74.723 0.082031c0.25781 0.003906 4.0273 3.9219 4.0273 4.1797 0 0.10547-0.8125 0.96875-1.7969 1.918-0.98828 0.94922-1.8867 1.7227-1.9961 1.7227-0.10937 0-1.1055-0.95703-2.2188-2.1211l-2.0195-2.1172 1.8984-1.793c1.0469-0.98828 1.9922-1.793 2.1055-1.793zm-64.688 0.5625c0.20703 0.074219 4.0703 4.0898 4.0703 4.2305 0 0.0625-0.85938 0.93359-1.9102 1.9336l-1.9102 1.8242-2.125-2.1445-2.125-2.1406 0.37891-0.42969c0.78516-0.89063 3.4805-3.3242 3.6211-3.2734zm9.8867 0.48047 2.043 2.125c1.1211 1.168 2.0391 2.2148 2.0391 2.3164 0 0.10547-0.8125 0.96875-1.8008 1.918-0.98828 0.94922-1.8867 1.7266-1.9922 1.7266-0.31641-0.003906-4.0156-3.9727-4.0078-4.2969 0-0.16406 0.84375-1.0781 1.8672-2.0391l1.8555-1.7461zm9.9531 0.85547c0.32031 0.003906 4.0312 3.957 4.0234 4.2812 0 0.16016-0.77344 1.0273-1.7109 1.9219-0.9375 0.89453-1.8203 1.625-1.9609 1.625-0.27734-0.003906-4.125-3.8945-4.125-4.168 0-0.24219 3.5352-3.6602 3.7773-3.6602zm-74.742 0.023437c0.26953 0.042969 0.91016 0.62109 2.2031 1.9648 1.1172 1.1602 2.0273 2.1562 2.0273 2.207s-0.8125 0.87109-1.8008 1.8242c-0.98828 0.94922-1.8945 1.7266-2.0156 1.7266-0.27344-0.003906-2.0039-1.7227-2.2617-2.2422-0.10547-0.21094-0.28516-1.0078-0.40234-1.7695l-0.21484-1.3828 1.0508-1.0742c0.57812-0.59375 1.168-1.1484 1.3164-1.2383 0.023437-0.015625 0.058593-0.015625 0.09375-0.011719zm10.047 0.41797 2.043 2.1289c1.125 1.168 2.0391 2.2148 2.0391 2.3242s-0.83203 0.98828-1.8477 1.957l-1.8438 1.7578-0.51953-0.47656c-1.0898-1.0078-3.5898-3.7891-3.5898-3.9844 0-0.11328 0.83984-0.99219 1.8594-1.957l1.8555-1.75zm74.711 0.066406 2.0508 2.1367c1.1289 1.1758 2.0508 2.1992 2.0508 2.2812s-0.68359 0.80078-1.5117 1.6016-1.7031 1.6094-1.9453 1.8008l-0.43359 0.34375-1.9609-2.0156c-1.0781-1.1094-1.9531-2.1484-1.9531-2.3164 0-0.16406 0.83984-1.0938 1.8555-2.0664zm-64.723 0.79297c0.15234 0 4.1914 4.0312 4.1914 4.1797 0 0.011719-0.81641 0.83984-1.8164 1.8398-0.99609 0.99609-1.8984 1.8086-2 1.8086-0.19141-0.003906-3.5547-3.3359-3.9922-3.957-0.058593-0.078124-0.09375-0.15234-0.082031-0.24219 0.023438-0.26562 0.42578-0.68359 1.6602-1.8711 1.0078-0.96875 1.9219-1.7578 2.0352-1.7578zm74.707 0.082031c0.25 0.003906 4.0156 3.9297 4.0156 4.1797 0 0.10547-0.8125 0.96875-1.8008 1.918-0.98828 0.94922-1.875 1.7266-1.9727 1.7266-0.24609-0.003907-4.0312-3.9297-4.0312-4.1719 0-0.25391 3.5352-3.6523 3.7891-3.6523zm-64.723 0.42578 2.0547 2.1367c1.1289 1.1758 2.0508 2.1797 2.0508 2.2383 0 0.054688-0.87891 0.94141-1.9531 1.9648l-1.9492 1.8594-2.043-2.2383-2.043-2.2344 3.8906-3.7266zm74.699 0.17188c0.14453 0 4.1328 4.1406 4.1328 4.2852 0 0.054688-0.875 0.93359-1.9375 1.9492l-1.9414 1.8516-2.0586-2.1289c-1.1328-1.168-2.0547-2.1875-2.0547-2.2578 0-0.16406 3.6953-3.6992 3.8633-3.6992zm9.9961 0.57031 2.0195 2.1055c1.1133 1.1562 2.0195 2.1914 2.0195 2.293 0 0.10547-0.8125 0.96875-1.8008 1.918s-1.8867 1.7227-1.9961 1.7227c-0.27734-0.003906-4.0078-3.9492-4.0078-4.2305 0-0.125 0.85156-1.0352 1.8867-2.0195l1.8828-1.793zm-74.77 0.16016c0.26953-0.085937 4.1094 3.9023 4.0352 4.1953-0.03125 0.12109-0.82812 0.98437-1.7695 1.918-0.94141 0.93359-1.8086 1.6914-1.9219 1.6914-0.23438-0.003906-4.0664-4.0234-4.0664-4.2578 0-0.1875 3.4336-3.4531 3.7266-3.543zm10.078 0.5 2.043 2.1289c1.125 1.168 2.0391 2.1719 2.0391 2.2305 0 0.054688-0.85937 0.91797-1.9062 1.918l-1.9062 1.8203-1.6758-1.707c-0.92188-0.94141-1.8633-1.9336-2.0898-2.207l-0.41406-0.5 1.5117-1.4805c0.83203-0.81641 1.7109-1.6406 1.9531-1.8398l0.44531-0.35938zm74.758 0.10547 0.82812 0.85156c0.65234 0.66797 0.92188 1.1602 1.2617 2.293 0.67187 2.25 0.61719 2.5234-0.74219 3.8633l-1.1602 1.1484-2.0586-2.1367c-1.1328-1.1758-2.0547-2.2031-2.0547-2.2852 0-0.20703 2.7148-2.8984 3.375-3.3555l0.54688-0.375zm-64.867 0.75c0.30859 0.003906 4.0938 3.8867 4.0938 4.1875 0 0.10938-0.82812 0.98438-1.8359 1.9453l-1.832 1.75-0.71875-0.59766c-1.125-0.9375-3.4141-3.4727-3.4141-3.7656 0-0.34766 3.3555-3.5195 3.707-3.5195zm9.9609 0.59375c0.20312 0.003906 4.2266 4.082 4.2266 4.2812 0 0.050781-0.80859 0.87109-1.7969 1.8242-0.98828 0.94922-1.918 1.7227-2.0664 1.7227-0.28125-0.003907-3.6719-3.375-3.9648-3.9375-0.015625-0.035157-0.023437-0.070313-0.023437-0.10547-0.007813-0.27734 0.39453-0.75391 1.6406-2.0039 0.97656-0.98047 1.875-1.7773 1.9922-1.7773zm-64.648 0.48438 2.0234 2.1094c1.1133 1.1602 2.0195 2.1953 2.0195 2.3047s-0.83203 0.98828-1.8477 1.957l-1.7188 1.6445c-0.058594 0.039062-0.10547 0.0625-0.14844 0.09375l-0.49219-0.45312c-1.207-1.1094-3.5859-3.75-3.5898-3.9766 0-0.13672 0.84766-1.0156 1.8789-1.957l1.875-1.7148zm74.668 0.035156 2.0547 2.1328c1.1289 1.1758 2.0508 2.2227 2.0508 2.3281 0 0.10547-0.63672 0.77734-1.4102 1.4961-0.77734 0.71875-1.6484 1.5078-1.9414 1.75l-0.52734 0.44141-1.9609-2.0234c-1.0781-1.1133-1.957-2.1562-1.957-2.3164 0-0.16016 0.83203-1.082 1.8477-2.0508l1.8438-1.7617zm-64.688 0.78516c0.24609 0.003907 4.125 3.9844 4.1523 4.2578 0 0.039062-0.88672 0.89453-1.9805 1.9023l-1.9844 1.8359-2.0117-2.1328c-1.1055-1.1719-2.0117-2.2188-2.0117-2.3164 0-0.31641 3.5039-3.543 3.8359-3.543zm74.68 0.082031c0.25 0.003907 4.0156 3.9297 4.0156 4.1797 0 0.10547-0.8125 0.96875-1.7969 1.918-0.98828 0.94922-1.8867 1.7227-1.9961 1.7227-0.25-0.003906-4.0117-3.9375-4.0117-4.1836 0-0.24609 3.543-3.6367 3.7891-3.6367zm9.9297 0.59375c0.17578 0 4.1797 4.1133 4.1797 4.2852 0 0.054687-0.87891 0.9375-1.9492 1.9609l-1.9453 1.8594-1.8789-1.9453c-1.0312-1.0703-1.9492-2.082-2.0391-2.25-0.023438-0.027344-0.023438-0.0625-0.023438-0.10156 0.007812-0.26953 0.45703-0.79688 1.6719-2.0078 0.99609-0.99219 1.8867-1.8008 1.9805-1.8008zm-74.645 0.015626c0.19531 0.003906 4.0938 3.9609 4.0938 4.1523 0 0.074219-0.86328 0.96094-1.9141 1.9648l-1.9102 1.8242-2.1016-2.1445c-1.543-1.5742-1.9453-2.0273-1.9219-2.3086 0.007813-0.066407 0.039063-0.12109 0.082032-0.17969 0.40234-0.52734 3.4922-3.3086 3.6719-3.3086zm9.9844 0.5 4.2031 4.375-1.8945 1.8242c-1.043 1-1.957 1.8203-2.0391 1.8203-0.14844 0-2.8828-2.7891-3.6875-3.7578l-0.44922-0.53906 3.8672-3.7188zm74.719 0.074218 2.0117 2.0938c1.1055 1.1523 2.0078 2.1836 2.0078 2.2852 0 0.10547-0.8125 0.96875-1.8008 1.918-0.98828 0.94922-1.875 1.7266-1.9727 1.7266-0.28125-0.003906-4.0312-3.9492-4.0312-4.2344 0-0.14453 0.85547-1.0547 1.8945-2.0273l1.8867-1.7656zm9.9336 0.79297c0.28125 0.003906 3.9883 3.9688 3.9883 4.2578 0 0.14844-0.83594 1.0742-1.8516 2.0625l-1.8438 1.793-2.0547-2.1406c-1.1328-1.1758-2.0508-2.2266-2.0508-2.332 0-0.23438 3.5742-3.6367 3.8125-3.6367zm-74.734 0.035156c0.28125 0.035157 0.74609 0.48828 2.1445 1.9414 1.1211 1.168 2.0391 2.168 2.0391 2.2266 0 0.054688-0.86719 0.92969-1.9258 1.9375l-1.9258 1.8359-4.1875-4.3516 0.46484-0.5c0.66016-0.71094 2.7383-2.6953 3.1523-3.0117 0.082031-0.058594 0.15234-0.09375 0.24609-0.082031zm-46.203 0.28125c0.042968-0.011719 0.11328 0.039063 0.22656 0.13672 0.15625 0.13281 0.28125 0.27734 0.28125 0.31641 0 0.035156-0.13281 0.066406-0.28906 0.066406s-0.28125-0.14453-0.28125-0.31641c0-0.125 0.015624-0.19141 0.058593-0.20312zm56.199 0.12891 2.043 2.125c1.1211 1.168 2.0352 2.2109 2.0352 2.3164 0 0.10547-0.8125 0.96875-1.8008 1.918-0.98828 0.95313-1.8633 1.7266-1.9453 1.7266-0.28125-0.003906-4.0547-4.0156-4.0547-4.3047 0-0.16016 0.83984-1.0742 1.8633-2.0352zm9.9609 0.85547c0.1875 0 4.2031 4.0938 4.2031 4.2812 0 0.050782-0.80859 0.87109-1.7969 1.8242-0.98828 0.94922-1.8945 1.7266-2.0117 1.7266-0.26562-0.003907-4.1953-3.9336-4.1875-4.1875 0-0.25 3.543-3.6406 3.7891-3.6406zm9.9883 0.52344 2.0586 2.1172c1.1328 1.1641 2.0547 2.1797 2.0547 2.2461 0 0.070313-0.35156 0.50781-0.78125 0.97266-0.42969 0.46484-1.3047 1.2852-1.9531 1.8203l-1.1758 0.97266-2.043-2.1445c-1.125-1.1797-2.043-2.1836-2.043-2.2188 0-0.039063 0.87109-0.90234 1.9375-1.918l1.9414-1.8516zm-74.492 0.12891 1.9414 2.0234c1.0703 1.1133 1.9375 2.1133 1.9375 2.2227s-0.42188 0.58203-0.92969 1.0547c-0.50781 0.46875-1.1992 0.98047-1.543 1.1328l-0.61719 0.28125-0.56641-1.5664c-0.76953-2.1172-1.2461-3.6016-1.2305-3.8516 0-0.11328 0.23438-0.45312 0.50781-0.75l0.49609-0.54297zm9.8242 0.65234c0.20703 0.003906 4.1484 4.0195 4.1484 4.2227 0 0.039062-0.83594 0.86328-1.8594 1.8359-1.0195 0.97266-1.9297 1.7656-2.0195 1.7656-0.16016 0-3.0781-2.9492-3.8242-3.8594l-0.35938-0.4375 1.8359-1.7656c1.0078-0.97266 1.9453-1.7578 2.082-1.7578zm117.32 0.070312c0.23047-0.042968 0.35156 0.089844 0.35156 0.40625 0 0.23438 0.14453 1.0781 0.32031 1.8672 0.55469 2.4688 0.52734 2.4961-0.96484 1.0859-0.71875-0.67969-1.3633-1.3984-1.4219-1.6016-0.007813-0.035157-0.015625-0.070313-0.015625-0.10547-0.015625-0.24609 0.19141-0.51953 0.70312-0.97656 0.45312-0.40625 0.79688-0.62891 1.0273-0.67578zm-42.652 0.003906c0.25391 0.003907 4.0156 3.9336 4.0156 4.1875 0 0.10938-0.83594 0.98828-1.8477 1.957l-1.8438 1.7617-0.61328-0.57422c-1.5469-1.4531-2.4609-2.3945-2.9844-3.0781l-0.57031-0.74609 1.8242-1.7539c1.0039-0.96484 1.9141-1.7539 2.0195-1.7539zm-64.723 0.51563c0.18359 0 4.1016 4.0781 4.1016 4.2656 0 0.066407-0.86719 0.94922-1.9258 1.957l-1.9219 1.8359-2.0898-2.1289-2.0898-2.1328 0.85156-0.95703c0.46875-0.52734 1.1133-1.1484 1.4258-1.3867 0.31641-0.23437 0.78125-0.66016 1.0312-0.94531s0.52734-0.51172 0.61328-0.51172zm74.754 0.015624 2.0391 2.125c1.1211 1.168 2.0391 2.168 2.0391 2.2266s-0.87891 0.9375-1.9492 1.9609l-1.9492 1.8594-2.0508-2.1367c-1.1289-1.1758-2.0469-2.2031-2.0469-2.2852 0-0.17578 1.8711-2.0195 3.0781-3.0391l0.83984-0.70703zm9.9414 0.63672 2.0195 2.1016c1.1133 1.1562 2.0156 2.1914 2.0156 2.293 0 0.10547-0.8125 0.96875-1.8008 1.918s-1.8867 1.7266-1.9922 1.7266c-0.28125-0.003906-4.0078-3.9531-4.0078-4.2422 0-0.13281 0.85156-1.0391 1.8867-2.0195l1.8828-1.7812zm-74.684 0.13672c0.26953 0.003906 3.9883 3.918 3.9883 4.1914 0 0.10547-0.82812 0.98438-1.8398 1.9453l-1.8359 1.75-2.0195-2.0078c-1.1094-1.1055-2.0508-2.0938-2.082-2.1953-0.082031-0.22656 3.4844-3.6836 3.7891-3.6836zm9.9062 0.58984c0.16797 0 4.168 4.1172 4.168 4.2852 0 0.054688-0.875 0.93359-1.9375 1.9492l-1.9336 1.8477-1.8867-1.9336c-1.0391-1.0625-1.9648-2.0742-2.0586-2.2539-0.015625-0.027344-0.023438-0.066406-0.023438-0.10156 0-0.27344 0.41016-0.75781 1.6875-2.0039 1.0078-0.98438 1.9023-1.7852 1.9883-1.7852zm74.688 0.082031c0.19922 0 4.2109 4.0898 4.2109 4.2852 0 0.054688-0.875 0.9375-1.9414 1.9531l-1.9414 1.8477-2.0586-2.1172c-1.1328-1.1641-2.0547-2.1914-2.0547-2.2812 0-0.23828 3.5508-3.6914 3.7852-3.6914zm-64.703 0.44531 2.043 2.125c1.1211 1.168 2.0352 2.2109 2.0352 2.3164 0 0.10547-0.8125 0.96875-1.8008 1.918-0.98828 0.94922-1.8828 1.7188-1.9922 1.7188-0.30469-0.015624-4.0117-4.0039-4.0117-4.3125 0-0.15234 0.83984-1.0625 1.8633-2.0234l1.8594-1.7461zm74.73 0.054687 1.832 1.9453c1.8164 1.9297 1.8438 1.9766 1.6914 3.0273-0.03125 0.22266-3.0508 3.1367-3.2461 3.1367-0.10156 0-1.1016-0.96875-2.2266-2.1445l-2.043-2.1445 2-1.9102 1.9961-1.9102zm-64.781 0.80078c0.11328 0 1.1055 0.94141 2.2031 2.082 1.5391 1.6016 1.957 2.1484 1.8242 2.375-0.09375 0.16406-0.95703 1.0391-1.9141 1.9453l-1.7383 1.6523-2.0742-2.1562c-1.1406-1.1875-2.0742-2.207-2.0742-2.2656 0-0.20703 3.5664-3.6328 3.7734-3.6328zm10.098 0.71094c0.085938 0 0.15234 0.035156 0.22656 0.097656 0.67578 0.58203 3.793 3.9844 3.793 4.1445 0 0.09375-0.80859 0.95312-1.7969 1.918-0.98828 0.96094-1.8867 1.7461-1.9922 1.7461-0.24609 0-4.0078-4.1211-4.0078-4.3828 0-0.10547 0.82812-0.98438 1.8398-1.9492 1.2461-1.1875 1.6758-1.5625 1.9336-1.5742zm-64.816 0.39453 2.1016 2.1914c1.1562 1.2031 2.1016 2.2383 2.1016 2.293 0 0.058594-0.88281 0.88672-1.9609 1.8477l-1.9609 1.7461-1.5625-1.6211c-0.85938-0.89062-1.6562-1.8633-1.7695-2.1602-0.066406-0.18359-0.10938-0.3125-0.10156-0.4375 0.015625-0.20703 0.16016-0.39062 0.50391-0.76562 0.33594-0.36328 0.61328-0.76562 0.61328-0.89062s0.46094-0.67188 1.0195-1.2148zm74.73 0.085937 4.2031 4.375-1.8945 1.8203c-1.043 1-1.9688 1.8203-2.0586 1.8203-0.21875-0.003907-2.8086-2.625-3.5273-3.5703l-0.56641-0.74219 1.9258-1.8516 1.9219-1.8516zm-64.664 0.70703c0.15234 0 4.0352 4.125 4.0352 4.2812 0 0.074218-0.83984 0.92578-1.8633 1.8867-1.0234 0.96484-1.8906 1.7812-1.9297 1.8164-0.039063 0.035156-1-0.91406-2.1406-2.1094l-2.0664-2.1758 1.0352-1.0977c1.0312-1.0938 2.7383-2.6055 2.9297-2.6055zm74.617 0.078125c0.15625 0 4.1445 4.1289 4.1445 4.2852 0 0.054687-0.875 0.93359-1.9414 1.9531l-1.9375 1.8516-2.0547-2.1328c-1.1289-1.1719-2.0547-2.2109-2.0547-2.3047 0-0.19922 3.6406-3.6523 3.8438-3.6523zm-64.699 0.70703c0.25 0.003906 4.0156 3.9297 4.0156 4.1797 0 0.10547-0.8125 0.96875-1.8008 1.918-0.98828 0.94922-1.8516 1.7266-1.918 1.7266-0.12109 0-2.8633-2.7891-3.707-3.7656l-0.45703-0.52734 1.8398-1.7656c1.0078-0.97266 1.9219-1.7617 2.0273-1.7617zm74.684 0.078125c0.27734 0.003906 4.0586 3.9062 4.0586 4.1836 0 0.10547-0.8125 0.96875-1.8008 1.918-0.98828 0.94922-1.8867 1.7266-1.9922 1.7266-0.26172-0.003906-4.0117-3.9453-4.0117-4.207 0-0.28906 3.4609-3.6172 3.7461-3.6172zm-64.688 0.51562c0.17578 0 4.1094 4.1055 4.1094 4.2852 0 0.058594-0.86719 0.92578-1.9219 1.9336l-1.918 1.832-2.082-2.1836-2.0781-2.1836 0.82422-0.86328c1.3125-1.375 2.8828-2.8203 3.0664-2.8203zm74.633 0.082031c0.17578 0 4.2031 4.0898 4.2031 4.2617 0 0.042969-0.80859 0.86328-1.793 1.8242-0.98437 0.96094-1.9062 1.7422-2.0469 1.7422-0.28516-0.003906-4.1562-3.9141-4.1562-4.1875 0-0.23438 3.5547-3.6406 3.7891-3.6406zm-64.723 0.42578 2.0508 2.1367c1.1289 1.1758 2.0469 2.2266 2.0469 2.332 0 0.10938-0.82812 0.98047-1.8281 1.9375-1.8086 1.7266-1.8281 1.7383-2.2852 1.4258-0.65234-0.44922-3.6875-3.8125-3.6875-4.0781 0-0.12109 0.83984-1.0156 1.8555-1.9883zm74.734 0.082032 2.0508 2.1367c1.1289 1.1758 2.043 2.2227 2.043 2.332s-0.82422 0.98047-1.8281 1.9375c-1.5508 1.4805-1.875 1.7109-2.1758 1.5391-0.57422-0.32422-3.7969-3.8555-3.7969-4.1484 0-0.14844 0.83594-1.0625 1.8555-2.0312zm-64.758 0.79297c0.1875 0 4.2031 4.0938 4.2031 4.2773 0 0.050782-0.8125 0.875-1.8008 1.8242-0.98828 0.94922-1.9141 1.7227-2.0547 1.7227-0.28516-0.003906-3.6758-3.3867-3.9844-3.9727-0.023438-0.058594-0.042969-0.11719-0.042969-0.17969 0.015625-0.28516 0.40625-0.71484 1.668-1.9297 1-0.96094 1.9023-1.7422 2.0078-1.7422zm10.141 0.66016c0.92578 0.88281 3.9648 4.1641 3.9648 4.2734 0 0.082032-0.8125 0.94531-1.8008 1.9141-0.99219 0.97266-1.8633 1.7656-1.9453 1.7656-0.26172-0.003906-4.0547-4.0469-4.0547-4.3125 0-0.35547 3.6523-3.8164 3.8359-3.6406zm63.73 0.32422c0.023438 0 0.050782 0.003906 0.066406 0.023437 0.30078 0.31641 0.51953 6.1172 0.22656 6.1172-0.27344-0.003906-3.2578-3.2695-3.1836-3.4805 0.039063-0.11328 0.68359-0.79688 1.4258-1.5195 0.76953-0.74609 1.2734-1.1406 1.4688-1.1445zm-53.883 0.39844c0.10547 0 1.0938 0.94531 2.1992 2.0938l2.0078 2.0898-1.8945 1.8203c-1.043 1-1.9688 1.8203-2.0625 1.8203-0.16016 0-2.3945-2.3086-3.5508-3.6641l-0.54687-0.64453 1.8281-1.7578c1.0078-0.96875 1.9141-1.7539 2.0195-1.7539zm-64.719 0.42578 2.0508 2.1367c1.1289 1.1758 2.0469 2.1836 2.0469 2.2383 0 0.054688-0.87109 0.93359-1.9336 1.9492l-1.9336 1.8477-1.9688-2.1094c-1.082-1.1602-1.9609-2.2031-1.9609-2.3203 0-0.11328 0.83594-1.0039 1.8555-1.9727l1.8477-1.7656zm74.734 0.09375 2.043 2.1289c1.125 1.1719 2.043 2.1758 2.043 2.2305 0 0.054688-0.86328 0.92578-1.918 1.9336l-1.918 1.832-1.7266-1.7227c-0.94922-0.94531-1.8867-1.9531-2.0742-2.2305l-0.34766-0.50781 1.4219-1.375c0.78125-0.75781 1.6602-1.5781 1.9492-1.832zm9.918 0.60938 2.0391 2.1211c1.1211 1.168 2.0352 2.2109 2.0352 2.3125 0 0.10547-0.8125 0.96875-1.8047 1.918-0.98828 0.94922-1.8828 1.7227-1.9922 1.7227-0.24219-0.003906-4.0117-3.9844-4.0117-4.2305 0-0.097656 0.84375-1.0039 1.8672-2.0117l1.8633-1.832zm-74.691 0.17188c0.24609 0.003906 4.0312 3.9297 4.0312 4.1719 0 0.10938-0.8125 0.97656-1.8008 1.9297-0.98828 0.94922-1.8633 1.7266-1.9375 1.7266-0.12891 0-2.207-2.1328-3.5938-3.6797l-0.55078-0.61328 1.8398-1.7695c1.0117-0.97266 1.9141-1.7656 2.0117-1.7656zm9.9531 0.59375c0.17188 0 4.1719 4.1133 4.1719 4.2852 0 0.054688-0.87109 0.93359-1.9336 1.9492l-1.9336 1.8477-1.8281-1.9453c-1.0078-1.0703-1.9375-2.082-2.0742-2.2578-0.042969-0.054687-0.074219-0.10547-0.074219-0.16406v-0.050781c0.03125-0.26172 0.4375-0.69922 1.6641-1.8828 1.0117-0.98047 1.9141-1.7812 2.0039-1.7812zm74.695 0.082032c0.19141 0.003906 4.1992 4.0977 4.1992 4.293 0 0.054688-0.875 0.93359-1.9453 1.957l-1.9492 1.8594-2.043-2.1406c-1.125-1.1758-2.0469-2.2227-2.0469-2.3281 0-0.24609 3.5352-3.6406 3.7852-3.6406zm-64.699 0.5 0.6875 0.65234c1.332 1.2656 3.3867 3.5391 3.3867 3.7383 0 0.11328-0.83203 0.99609-1.8438 1.9609l-1.8438 1.7578-0.42578-0.37109c-0.88672-0.76172-3.6797-3.8711-3.6836-4.0938 0-0.12891 0.84375-0.99609 1.8672-1.9375l1.8594-1.7109zm74.703 0.011718 2.0508 2.1367c1.1289 1.1758 2.0469 2.1953 2.0469 2.2656s-0.80469 0.9375-1.7812 1.918c-0.98047 0.98438-1.875 1.7852-1.9961 1.7852-0.12109 0-1.0898-0.92578-2.1562-2.0469-1.1445-1.2031-1.7188-1.7344-1.6953-2.2578 0.023437-0.52344 0.64453-1.0469 1.8945-2.2383l1.6367-1.5586zm-64.754 0.79297c0.1875 0 4.2031 4.0938 4.2031 4.2773 0 0.050781-0.8125 0.875-1.8008 1.8242-0.98828 0.94922-1.9102 1.7227-2.0469 1.7227-0.29297-0.003906-4.1484-3.8984-4.1484-4.1836 0-0.25 3.5391-3.6445 3.7891-3.6445zm74.738 0.082031c0.33984 0.003906 3.6484 3.5859 3.6406 3.9375 0 0.1875 0.20703 0.53516 0.46875 0.76953 0.44141 0.40234 0.46484 0.51953 0.34766 1.6758-0.066406 0.68359-0.19531 2.0781-0.28125 3.1016-0.12891 1.5508-0.21094 1.8477-0.47266 1.8477-0.33203-0.003907-7.5-7.3633-7.4922-7.6875 0-0.25 3.5391-3.6445 3.7891-3.6445zm-64.715 0.44531 2.043 2.125c1.1211 1.168 2.0352 2.1875 2.0352 2.2656s-0.80859 0.94141-1.7969 1.918c-0.98828 0.98047-1.8828 1.7734-1.9922 1.7734-0.29688-0.003906-4.0117-4.0234-4.0117-4.3281 0-0.14453 0.83984-1.0508 1.8633-2.0117l1.8594-1.7461zm9.9688 0.85547c0.25 0.003906 4.0156 3.9297 4.0156 4.1797 0 0.10547-0.8125 0.96875-1.8008 1.918-0.98828 0.94922-1.8789 1.7266-1.9766 1.7266-0.21094-0.003906-4.0234-4.0117-4.0234-4.2266 0-0.21875 3.5664-3.5977 3.7852-3.5977zm10.043 0.54687 2.0312 2.1133c1.1172 1.1641 2.0312 2.1641 2.0312 2.2188 0 0.054687-0.86328 0.92578-1.918 1.9297l-1.9141 1.8281-2.1016-2.1602-2.0977-2.1562 0.75-0.78906c0.41406-0.43359 1.0156-1.0703 1.3359-1.4102 0.32031-0.34375 0.875-0.83594 1.2344-1.0977l0.65234-0.47266zm-74.629 0.35156c0.24609-0.003906 0.78125 0.46875 2.0664 1.8008 1.043 1.0859 1.8945 2.0703 1.8945 2.1914 0 0.12109-0.34375 0.39063-0.76172 0.60156l-0.75781 0.38281-0.8125-1.2891c-1.2344-1.9531-1.7891-3-1.7969-3.4453-0.007812-0.10156 0.015625-0.17578 0.074219-0.21875 0.023437-0.023437 0.058593-0.027343 0.089843-0.027343zm9.8516 0.21094 2.1016 2.1914 2.1016 2.1875-1.9258 1.8438c-1.8516 1.7734-1.9414 1.832-2.3359 1.5469-0.22656-0.16406-1.1719-1.1445-2.1016-2.1836l-1.6914-1.8828zm74.66 0.011719 2.0391 2.125c1.1211 1.168 2.0391 2.2109 2.0391 2.3164 0 0.10547-0.8125 0.96875-1.8008 1.918-0.98828 0.94922-1.8867 1.7227-1.9961 1.7227-0.25781-0.003906-4.0078-3.9414-4.0078-4.1992 0-0.10938 0.84375-1.0273 1.8672-2.0391l1.8633-1.8438zm-64.723 0.77344c0.16016 0 4.1602 4.1211 4.1602 4.2773 0 0.050782-0.8125 0.875-1.7969 1.8242-0.98828 0.94922-1.9141 1.7227-2.0547 1.7227-0.24609-0.003907-4.1406-3.9609-4.1406-4.2031 0-0.17187 3.6602-3.625 3.832-3.625zm74.707 0.082031c0.17969 0 4.1836 4.1055 4.1836 4.2852 0 0.054688-0.875 0.9375-1.9453 1.957l-1.9453 1.8555-2.0547-2.168c-1.1289-1.1914-2.0508-2.2461-2.0508-2.3359 0-0.21484 3.5898-3.5938 3.8125-3.5938zm-64.66 0.51172 2.0078 2.0898c1.1055 1.1523 2.0078 2.1836 2.0078 2.293s-0.83594 0.98828-1.8477 1.957l-1.8438 1.7578-0.51953-0.47656c-1.1211-1.0352-3.5898-3.7969-3.5898-4.0039 0-0.12109 0.85547-0.98438 1.8945-1.918l1.8906-1.6953zm74.633 0.33984c0.30859 0.050782 0.88672 0.56641 2.1797 1.9102 1.0625 1.1055 1.9297 2.0938 1.9297 2.1875 0 0.097656-0.82422 0.96094-1.8281 1.918-1.0039 0.95703-1.8984 1.7383-1.9922 1.7383s-1.0859-0.96875-2.2109-2.1484l-2.043-2.1406 1.7422-1.6758c0.95703-0.92188 1.9062-1.7305 2.1055-1.7852 0.03125-0.011719 0.074219-0.011719 0.11719 0zm-64.699 0.44922c0.21875 0.003907 4.168 4.0742 4.168 4.2891 0 0.054687-0.85547 0.91406-1.9023 1.9102-1.0742 1.0234-1.9805 1.7422-2.0859 1.6602-0.10156-0.082031-1.0664-1.0859-2.1406-2.2344l-1.9531-2.0859 1.8438-1.7734c1.0117-0.97656 1.9453-1.7695 2.0742-1.7695zm74.699 0.082031c0.26172 0.003907 7.5586 7.6367 7.5586 7.8984 0 0.11328 0.20313 0.41406 0.46094 0.66406 0.54297 0.53125 0.52344 0.39063 0.23438 1.8281-0.48047 2.3945-1.0781 4.4414-1.2891 4.4414-0.26953-0.003906-10.754-10.926-10.754-11.191 0-0.25 3.543-3.6406 3.7891-3.6406zm-64.734 0.42578 2.0508 2.1367c1.1289 1.1758 2.0469 2.2305 2.0469 2.3359 0 0.10938-0.83203 0.97656-1.8477 1.9258-1.5195 1.4219-1.9062 1.6914-2.1797 1.5352-0.18359-0.10547-1.1562-1.0859-2.168-2.1797l-1.8359-1.9883 3.9297-3.7656zm9.9844 0.875c0.25 0.003906 4.0156 3.9297 4.0156 4.1797 0 0.10547-0.8125 0.96875-1.8008 1.918-0.98828 0.94922-1.8828 1.7227-1.9922 1.7227-0.23047-0.003906-4.0117-3.9766-4.0117-4.2109 0-0.22656 3.5586-3.6133 3.7891-3.6133zm10.016 0.52344 2.043 2.1289c1.125 1.1719 2.0391 2.1719 2.0391 2.2305 0 0.054688-0.86719 0.92969-1.9258 1.9375l-1.9258 1.8359-1.75-1.8242c-1.5547-1.6211-2.2031-2.1836-2.1562-2.6641 0.039063-0.375 0.49219-0.70703 1.2656-1.4609 0.83594-0.8125 1.7188-1.6328 1.9609-1.8281l0.44531-0.35156zm9.9297 0.62109 2.1211 2.2109 2.125 2.2109-1.8945 1.8203c-1.043 1.0039-1.9453 1.8203-2.0117 1.8203-0.21875-0.003906-4.0898-3.9727-4.0898-4.1875 0-0.11719 0.84766-1.0391 1.875-2.0469l1.8711-1.832zm-74.793 0.13672c0.25 0 0.81641 0.51172 2.1484 1.9102 1.0898 1.1445 1.9766 2.1797 1.9766 2.2969s-0.28906 0.46094-0.63281 0.76172c-0.66797 0.57812-1.3828 1.0039-1.6641 1.0039-0.19531-0.003906-2.9883-3.8281-2.9883-4.082 0-0.26953 0.80078-1.6406 1.0742-1.8633 0.023437-0.015626 0.050781-0.027344 0.089844-0.027344zm10.137 0.55859 2.0391 2.1211c1.1211 1.168 2.0352 2.1602 2.0352 2.2148 0 0.050781-0.80859 0.875-1.7969 1.8242-0.98828 0.94922-1.8867 1.7227-2 1.7227s-1.1055-0.9375-2.2031-2.082c-1.3711-1.4297-1.793-1.8789-1.8086-2.1484v-0.054687c0.015625-0.082032 0.074219-0.16016 0.15625-0.25391 0.58203-0.64844 2.1016-2.1055 2.8594-2.7422l0.71875-0.60547zm74.719 0.070312 2.043 2.1289c1.125 1.1719 2.043 2.168 2.043 2.2227 0 0.050782-0.80859 0.87109-1.7969 1.8242-0.98828 0.94922-1.9336 1.7227-2.0977 1.7227-0.3125-0.003907-4.0977-3.9062-4.0977-4.2148 0-0.16406 2.4961-2.5625 3.4648-3.3281l0.44531-0.35547zm-64.785 0.55859 2.0195 2.1055c1.1133 1.1562 2.0195 2.1914 2.0195 2.293 0 0.10547-0.8125 0.96875-1.8008 1.918-0.98828 0.95312-1.8633 1.7266-1.9375 1.7266-0.27734-0.003906-4.0625-4.0234-4.0625-4.3086 0-0.15625 0.84766-1.0625 1.8828-2.0117l1.8789-1.7266zm74.656 0.30078c0.33594 0.003906 4.1172 3.8867 4.1094 4.2148 0 0.12109-0.84375 0.98438-1.8711 1.918-1.0273 0.93359-1.9258 1.6914-1.9922 1.6914-0.066407 0-1.0391-0.97266-2.1602-2.1562l-2.0352-2.1523 1.832-1.7617c1.0078-0.96875 1.9609-1.7539 2.1172-1.7539zm-64.73 0.51562c0.19531 0 4.2031 4.0977 4.2031 4.2852 0 0.054688-0.86719 0.92969-1.9258 1.9375l-1.9219 1.8359-2.0742-2.1602c-1.1406-1.1875-2.0703-2.2266-2.0703-2.3008 0-0.21484 3.5703-3.5977 3.7891-3.5977zm74.738 0.082031c0.32422 0.003907 10.73 10.996 10.723 11.324 0 0.16406 0.12109 0.41406 0.28125 0.55469 0.36719 0.31641 0.24609 0.85156-0.73047 3.2188-0.67578 1.6367-0.78125 1.793-1.2031 1.7344-0.32031-0.039062-2.3633-2.043-6.6641-6.5312-3.4102-3.5586-6.1953-6.5508-6.1953-6.6562 0-0.25 3.543-3.6406 3.7891-3.6406zm-64.762 0.44922 0.80469 0.77734c1.5 1.4492 3.3164 3.4492 3.3164 3.6445 0 0.10547-0.84766 0.98438-1.8789 1.9492l-1.8711 1.7578-2.0273-2.1133c-1.1172-1.1602-2.0234-2.1992-2.0234-2.3086s0.83203-0.98828 1.8438-1.9531zm10.004 0.85547c0.10547 0 1.0938 0.94531 2.1992 2.0938l2.0078 2.0898-1.8945 1.8203c-1.043 1-1.9492 1.8203-2.0156 1.8203-0.21484-0.003907-4.0859-3.9531-4.0859-4.1641 0-0.26172 3.5312-3.6602 3.7891-3.6602zm9.9141 0.59375c0.1875 0.003906 4.1953 4.1016 4.1953 4.2852 0 0.054687-0.86719 0.92578-1.9258 1.9375l-1.9219 1.8359-2.0742-2.1055c-1.1445-1.1562-2.0742-2.1641-2.0742-2.2383 0-0.20703 3.5977-3.7109 3.8008-3.7109zm10.051 0.78906c0.26562 0.003907 4.043 3.918 4.043 4.1797 0 0.10547-0.8125 0.96875-1.8008 1.918-0.98828 0.95312-1.875 1.7266-1.9648 1.7266-0.24219-0.003906-4.0312-3.957-4.0312-4.2031 0-0.27344 3.4805-3.6211 3.7578-3.6211zm-64.68 0.51562c0.19531 0.003906 4.082 4.0898 4.082 4.2852 0 0.078126-0.39453 0.48438-0.875 0.90625-0.47656 0.42188-0.97266 0.76563-1.0977 0.76563-0.125-0.003907-0.37891 0.12109-0.5625 0.28125-0.30859 0.26562-0.46484 0.13672-2.0273-1.6836-0.92969-1.082-1.6875-2.0391-1.6914-2.1172 0-0.082031 0.13281-0.25391 0.29297-0.37891 0.16016-0.12891 0.29688-0.36328 0.29688-0.52734 0-0.30078 1.2812-1.5273 1.5781-1.5273zm74.652 0.078125c0.15625 0 4.1562 4.125 4.1562 4.2773 0 0.050781-0.8125 0.87109-1.7969 1.8242-0.98828 0.94922-1.8945 1.7266-2.0117 1.7266-0.28906-0.003906-4.1836-3.8984-4.1836-4.1719 0-0.23438 3.6016-3.6562 3.8359-3.6562zm9.957 0.50781 2.0508 2.1367c1.1289 1.1758 2.0469 2.2188 2.0469 2.3242s-0.8125 0.96875-1.8008 1.918-1.8867 1.7227-1.9961 1.7227c-0.3125-0.003906-4.0078-3.9688-4.0078-4.2891 0-0.15625 0.83984-1.082 1.8555-2.0508l1.8477-1.7656zm-74.734 0.19922c0.3125 0.003907 4.1016 3.8828 4.1016 4.1875 0 0.10938-0.83203 0.98828-1.8477 1.957-1.0117 0.96484-1.8867 1.7188-1.9375 1.6719-0.96094-0.89062-4.0156-4.207-4.0156-4.3594 0-0.3125 3.375-3.457 3.6953-3.457zm9.9922 0.59766c0.19141 0.003906 4.2031 4.0977 4.2031 4.2852 0 0.054687-0.82422 0.875-1.832 1.8242-1.0078 0.94922-1.9492 1.7188-2.0898 1.7188-0.23047-0.003906-3.2617-3.0938-3.8828-3.957-0.058594-0.078124-0.089844-0.15234-0.082031-0.24219 0.023437-0.26562 0.42188-0.67969 1.6602-1.8711 1.0078-0.96875 1.918-1.7578 2.0234-1.7578zm74.73 0.078125c0.31641 0.003906 12.547 12.91 12.672 13.367 0.066407 0.22656 0.23438 0.51953 0.38672 0.65234 0.14844 0.12891 0.27344 0.27734 0.27344 0.32422 0 0.054687-0.54297 0.96875-1.207 2.0469-0.66406 1.0781-1.2266 1.9609-1.2539 1.9609-0.023437 0-0.33594-0.14453-0.69141-0.33203-0.66016-0.33984-13.969-14.039-13.969-14.379 0-0.25 3.5391-3.6406 3.7891-3.6406zm-64.742 0.42188 2.0547 2.1367c1.1328 1.1758 2.0547 2.207 2.0547 2.2812 0 0.078124-0.72656 0.86328-1.6094 1.7461-0.88281 0.88281-1.75 1.6797-1.9219 1.7695-0.24609 0.12891-0.73828-0.27344-2.293-1.8633-1.0898-1.1133-1.9766-2.1367-1.9688-2.2773 0.007813-0.14063 0.83984-1.0508 1.8477-2.0273l1.8359-1.7734zm10.023 0.67578 4.1875 4.3828-3.9062 3.7422-2.0977-2.1914-2.0938-2.1875 1.9531-1.875 1.957-1.875zm9.9375 0.80078c0.14844 0 4.1367 4.1367 4.1367 4.2852 0 0.054687-0.82422 0.88672-1.8281 1.8438-1.4102 1.3477-1.9102 1.707-2.1914 1.6172-0.32031-0.10938-1.7891-1.6094-3.4648-3.543l-0.51562-0.58984 1.8672-1.8047c1.0273-0.99219 1.918-1.8047 1.9922-1.8047zm9.9961 0.59375 2.0195 2.0859c1.1133 1.1484 2.0195 2.1758 2.0195 2.2812s-0.8125 0.97266-1.8008 1.9219c-0.98828 0.95312-1.8711 1.7266-1.9648 1.7266-0.24609-0.003906-4.0352-4.0195-4.0352-4.2695 0-0.11719 0.85156-1.0078 1.8828-1.9805zm9.8359 0.89844c0.29297-0.035157 0.73047 0.35938 2.1758 1.8633 1.0625 1.1055 1.9297 2.1445 1.9297 2.3047 0 0.16016-0.82422 1.0742-1.8203 2.0234l-1.8164 1.7305-1.7656-1.8125c-1.4805-1.5156-2.1484-2.0938-2.1641-2.582-0.015625-0.43359 0.47656-0.79687 1.3633-1.6836 0.89063-0.89062 1.7812-1.7109 1.9805-1.8086 0.042969-0.023437 0.074219-0.035156 0.12109-0.039063zm10.094 0.39453 2.0547 2.1367c1.1289 1.1758 2.0508 2.2266 2.0508 2.3281 0 0.10547-0.8125 0.96875-1.8047 1.918-0.98828 0.94922-1.8828 1.7227-1.9922 1.7227-0.10547-0.003907-1.1094-0.97656-2.2266-2.1641l-2.0312-2.1562 1.9766-1.8906 1.9727-1.8906zm-74.828 0.20703c0.5-0.011719 1.0742 0.60547 2.2461 1.832 1.0781 1.1289 1.9531 2.1641 1.9531 2.3008 0 0.13281-0.33203 0.53906-0.73437 0.89062-0.40234 0.35547-1.0586 0.80078-1.4648 0.99609l-0.72656 0.34766h-0.015625l-1.7617-1.8359-1.7773-1.8555 0.49609-0.75391c0.86328-1.2734 1.2852-1.9102 1.7812-1.9219zm10.086 0.60938c0.1875 0.003906 4.2031 4.0938 4.2031 4.2812 0 0.050782-0.80859 0.875-1.7969 1.8242s-1.8867 1.7227-2 1.7227c-0.14844 0-3.1211-2.9883-4.1836-4.2031v-0.023437c0.11328-0.32422 3.543-3.6016 3.7773-3.6016zm74.73 0.0625c0.26562 0.003906 13.895 14.258 13.895 14.531 0 0.11719 0.12109 0.32422 0.27734 0.46094 0.15234 0.13281 0.27734 0.3125 0.27734 0.39844 0 0.085938-0.52344 0.76953-1.1562 1.5234-1.7188 2.0391-1.7812 2.082-2.5547 1.7383-0.62891-0.28516-14.539-14.664-14.531-15.027 0-0.23828 3.5508-3.625 3.7891-3.625zm-64.727 0.42969 2.0508 2.1328c1.1289 1.1758 2.0469 2.2148 2.0469 2.3086s-0.50781 0.66797-1.125 1.2695c-0.61719 0.60156-1.4844 1.3906-1.9336 1.7461l-0.81641 0.65234-1.9688-2.0469c-1.082-1.125-1.9609-2.1562-1.9609-2.293 0-0.13281 0.83594-1.0391 1.8555-2.0078l1.8477-1.7656zm9.9766 0.87891c0.10547 0 1.0938 0.94531 2.1992 2.0938l2.0078 2.0898-1.8945 1.8203c-1.043 1-1.9492 1.8203-2.0234 1.8203-0.13672 0-3.4258-3.3633-3.875-3.957-0.058593-0.082032-0.089843-0.15234-0.09375-0.23828 0.015626-0.26172 0.41016-0.66797 1.6562-1.8711 1.0078-0.96875 1.918-1.7578 2.0195-1.7578zm9.9453 0.58984c0.19141 0.003906 4.1602 4.082 4.1602 4.2695 0 0.066406-0.85938 0.93359-1.9023 1.9336l-1.8984 1.8164-2.082-2.1914-2.0859-2.1914 1.8203-1.8203c1-1 1.8984-1.8164 1.9922-1.8164zm10.047 0.58984 2.0117 2.0938c1.1055 1.1523 2.0039 2.1836 2.0039 2.2891 0 0.10938-0.82422 0.98438-1.832 1.9453l-1.8281 1.7461-0.62891-0.50391c-0.90625-0.73047-3.5078-3.5859-3.5078-3.8477 0-0.12109 0.85547-1.0078 1.8945-1.9727l1.8906-1.75zm9.9023 0.79297c0.30859 0.003906 4.0195 3.9609 4.0117 4.2812 0 0.16016-0.82812 1.0781-1.832 2.0352l-1.8242 1.7422-1.7539-1.8203c-0.96484-1.0039-1.9102-2.0234-2.1016-2.2578l-0.34375-0.43359 1.8281-1.7734c1.0078-0.97656 1.9141-1.7695 2.0195-1.7695zm10 0.50391 2.0547 2.1367c1.1289 1.1758 2.0508 2.2031 2.0508 2.2852 0 0.082031-0.8125 0.94531-1.8008 1.9219-0.98828 0.97266-1.875 1.7656-1.9688 1.7656s-1.0977-0.97656-2.2266-2.1641l-2.0547-2.1641zm-64.73 0.79688c0.24609 0.003906 4.1953 3.9961 4.1953 4.2305 0 0.066406-0.19531 0.32031-0.42578 0.55469-0.23438 0.23438-0.55469 0.42578-0.71484 0.42578s-0.51953 0.20312-0.79688 0.46094l-0.50391 0.46484-1.2266-1.0234c-0.67578-0.5625-1.5859-1.3594-2.0195-1.7734-0.45703-0.43359-0.64844-0.625-0.64844-0.78125 0-0.09375 0.058593-0.17578 0.16797-0.29297 0.17188-0.17969 0.31641-0.42969 0.31641-0.55078 0-0.31641 1.3672-1.7148 1.6602-1.7148zm74.719 0.082031c0.10938 0 3.3594 3.3125 7.2266 7.3555 6.0742 6.3516 7.3438 7.793 7.3945 8.4258 0 0.0625-0.61719 0.64844-1.3789 1.3047-1.9805 1.6953-2.0078 1.707-2.9297 1.0508-0.8125-0.57813-14.102-14.277-14.102-14.535 0-0.22266 3.5664-3.6016 3.793-3.6016zm-64.707 0.44531 2.043 2.125c1.1211 1.168 2.0352 2.2109 2.0352 2.3203 0 0.10547-0.59766 0.73828-1.3203 1.4062-0.72266 0.66406-1.5742 1.4375-1.8984 1.7188l-0.58594 0.50391-2-2.0195c-1.1016-1.1133-1.9961-2.1445-1.9961-2.2891 0-0.14844 0.84375-1.0547 1.8633-2.0156l1.8594-1.7461zm9.9648 0.66406 2.0078 2.0898c1.1055 1.1484 2.0039 2.1797 2.0039 2.2891 0 0.10547-0.83203 0.98828-1.8438 1.9531-1.668 1.5898-1.8672 1.7266-2.168 1.4727-0.39062-0.33203-2.9844-3.0352-3.5039-3.6562l-0.35938-0.42969 1.9297-1.8594zm10.023 0.72266 2.0391 2.1211c1.1211 1.168 2.0391 2.1758 2.0391 2.2266 0 0.054688-0.86328 0.92578-1.918 1.9297l-1.918 1.8281-2.0977-2.1641c-1.5078-1.5547-1.9258-2.0352-1.9102-2.3086 0-0.0625 0.03125-0.11719 0.074218-0.16406 0.47656-0.55469 2-2.0312 2.8555-2.7617l0.83594-0.71484zm9.9258 0.66406 0.58203 0.53906c1.1367 1.0547 3.4648 3.6328 3.4648 3.832 0 0.11328-0.83203 0.99219-1.8438 1.957-1.0117 0.96875-1.8828 1.7188-1.9297 1.6719-1.6953-1.6914-4.0234-4.1875-4.0234-4.3086 0-0.089844 0.84766-0.95703 1.8789-1.9297l1.8711-1.7656zm9.9727 0.78125c0.17188 0 4.168 4.1211 4.168 4.2852 0 0.054687-0.87109 0.92969-1.9297 1.9414l-1.9297 1.8398-1.8945-1.9258c-1.043-1.0586-1.9805-2.082-2.082-2.2773-0.03125-0.054688-0.042969-0.11328-0.042969-0.17969 0.023438-0.28516 0.4375-0.73047 1.7031-1.9336 1.0156-0.96484 1.918-1.7539 2.0039-1.7539zm9.9648 0.50391 2.0508 2.1367c1.1289 1.1758 2.0469 2.2188 2.0469 2.3086 0 0.09375-0.82031 0.96094-1.8242 1.918-1 0.96094-1.8945 1.7422-1.9805 1.7422-0.085937 0-1.0781-0.97266-2.2031-2.1602l-2.0469-2.1562 3.9531-3.7891zm45.758 0.75391c0.33984-0.003906 0.67578 0.0625 1 0.20703 0.98438 0.67578 1.8242 3.0859 3.8125 10.988 1.0469 4.1523 2.5781 9.1484 3.6484 11.902 0.37109 0.95312 1.0078 2.582 1.4141 3.6211 1.0312 2.6406 4.5469 9.8594 6.5391 13.434 0.91797 1.6484 1.8828 3.4258 2.1406 3.957 0.82422 4.1367-1.7773 2.6055-5.0469 0.78906-5.0781-3.1523-9.625-5.625-14.699-7.9844-5.0859-2.3672-8.2578-3.5312-16.781-6.168-6.1602-1.9062-8.1016-2.6797-8.832-3.5273-0.22266-0.25781-0.33203-0.61328-0.33203-1.0156s0.11719-0.85156 0.34375-1.3008c0.29687-0.58203 0.64844-0.81641 2.5977-1.7109 1.2422-0.57031 2.4805-1.0195 2.7578-1.0195 1.4297 0.054688 3.1211-0.97656 4.125-2.4609 0.84375-1.2539 2.6016-2.6836 3.7891-3.0898 1.7578-0.59766 2.8516-1.6172 3.4492-3.1914 0.19922-0.51953 0.77734-1.4258 1.2852-2.0039 0.44141-0.5 0.82031-1.2891 1.5625-1.6484 1.875-0.91016 2.9453-2.3047 3.2656-4.2461 0.21094-1.2812 1.6484-4.3125 2.3477-4.8984 0.48828-0.41016 1.0586-0.62109 1.6211-0.62891zm-35.77 0.12109c0.32812 0.003906 13.762 14.152 13.992 14.734 0.11719 0.29688 0.17969 0.60938 0.12891 0.6875s-0.89453 0.59766-1.8828 1.1523c-0.99219 0.55469-1.8906 1.0039-2 1.0039-0.59375 0-2.1445-1.457-7.2227-6.7344-3.0938-3.2148-5.9023-6.1758-6.2461-6.582l-0.625-0.74219 1.8281-1.7578c1.0078-0.96875 1.918-1.7578 2.0234-1.7578zm-64.777 0.67188c0.13281-0.054688 1.1172 0.82031 2.1914 1.8906 1.7812 1.7773 2.2578 2.4219 1.7812 2.4219-0.09375 0-0.44531 0.21875-0.77734 0.48047l-0.60156 0.48828-0.79297-0.54688c-0.4375-0.30078-1.4141-1.0234-2.1719-1.6094l-1.3789-1.0625 0.41016-0.42188c0.22656-0.23047 0.41406-0.54688 0.41406-0.70703 0-0.3125 0.53125-0.84766 0.92969-0.9375zm10.035 0.62891c0.10547 0 1.0938 0.94531 2.1992 2.0938l2.0078 2.0938-1.8945 1.8203c-1.043 1.0039-1.9336 1.8125-1.9922 1.8125-0.15625 0-2.6797-2.5391-3.4609-3.4648l-0.70703-0.83594 1.832-1.7617c1.0078-0.96875 1.9141-1.7578 2.0195-1.7578zm9.9531 0.59766c0.15234 0 4.1484 4.1328 4.1484 4.2852 0 0.054688-0.87109 0.92969-1.9297 1.9375l-1.9258 1.8359-1.3828-1.4375c-0.76172-0.78906-1.6914-1.7969-2.0742-2.2383l-0.69141-0.80469 1.8633-1.7891c1.0234-0.98438 1.918-1.7891 1.9922-1.7891zm9.9766 0.78516c0.28906 0 4.0664 3.8984 4.0664 4.1875 0 0.10547-0.82812 0.98828-1.8398 1.9531l-1.8398 1.7539-0.80469-0.76172c-1.1211-1.0586-3.3203-3.4336-3.3203-3.5938 0-0.24219 3.4883-3.5391 3.7344-3.5391zm9.9805 0.60156c0.21484 0 4.1836 4.0273 4.1836 4.2461 0 0.066406-0.8125 0.89844-1.8008 1.8516-0.98828 0.94922-1.8867 1.7266-1.9922 1.7266-0.10938 0-1.1172-0.96875-2.2422-2.1484l-2.0469-2.1445 1.8477-1.7617c1.0156-0.96875 1.9414-1.7656 2.0547-1.7656zm9.9688 0.50781 2.0547 2.1289c1.1328 1.168 2.0547 2.2188 2.0547 2.3359 0 0.11719-0.83984 0.99219-1.8555 1.9492-1.8438 1.7305-1.8516 1.7344-2.2695 1.3828-0.8125-0.6875-3.6758-3.8594-3.6758-4.0664 0-0.11328 0.83594-1 1.8477-1.9688l1.8438-1.7578zm10 0.86719c0.10938 0 2.957 2.8867 6.332 6.4141 5.1016 5.332 6.3438 6.7461 6.6055 7.543 0 0-0.33203 0.21094-0.75781 0.42188-0.95703 0.46484-3.3086 1.2539-3.6875 1.2539-0.15234 0-0.43359-0.17969-0.61719-0.39844-0.18359-0.21094-0.50391-0.39844-0.70703-0.39844-0.36328 0-10.961-10.852-10.961-11.215 0.007813-0.24219 3.5547-3.6211 3.793-3.6211zm-54.801 1.3125c0.1875-0.054687 0.62109 0.375 2.0508 1.8633 1.1172 1.1641 1.9414 2.1406 1.8242 2.1836-0.11328 0.054688-0.64453-0.22266-1.1797-0.57422-0.53516-0.35156-1.5469-1-2.2422-1.4375-0.82813-0.52734-1.1055-0.73438-1.0977-0.91016 0-0.0625 0.042969-0.125 0.10156-0.17969 0.14844-0.16406 0.33203-0.5 0.41406-0.74219 0.03125-0.10547 0.074219-0.17969 0.13281-0.19531zm10.07 0.50391 2.043 2.1289c1.125 1.1719 2.043 2.1797 2.043 2.2383 0 0.054687-0.46094 0.53125-1.0234 1.0508s-1.1719 0.99609-1.3594 1.0547c-0.18359 0.0625-0.44141 0.32422-0.56641 0.58594s-0.28516 0.47656-0.34375 0.47656-0.91797-0.4375-1.9023-0.97266c-1.4102-0.76172-1.8047-1.0664-1.8438-1.4219-0.03125-0.24609-0.26562-0.69141-0.52734-0.97656l-0.47266-0.51953 1.3594-1.2695c0.75-0.69922 1.6406-1.5156 1.9766-1.8203l0.61328-0.55469zm9.918 0.61328 2.0391 2.1211c1.1211 1.168 2.0352 2.207 2.0352 2.3125 0 0.10547-0.8125 0.96875-1.8047 1.918-0.98828 0.94922-1.8711 1.7266-1.9648 1.7266-0.18359 0-4.0352-4.1094-4.0352-4.2969 0-0.0625 0.83984-0.9375 1.8672-1.9453zm9.9766 0.84766c0.17578 0 4.1836 4.1055 4.1836 4.2773 0 0.054688-0.8125 0.87109-1.8008 1.8242s-1.8984 1.7266-2.0273 1.7266c-0.24219 0-4.168-3.9648-4.168-4.1953 0-0.20312 3.6055-3.6328 3.8086-3.6328zm9.9609 0.52734 0.71484 0.67578c1.3828 1.3125 3.4062 3.5625 3.4062 3.7734 0 0.11719-0.50781 0.69141-1.1211 1.2734-0.61719 0.58203-1.418 1.3555-1.7812 1.7109-0.36328 0.36328-0.72656 0.64844-0.80078 0.64844-0.26562 0-4.0977-4.043-4.0977-4.3047 0-0.15234 0.83203-1.0625 1.8438-2.0234zm10.012 0.85156c0.33203 0 11.152 11.441 11.02 11.645-0.066406 0.10547-1.2422 0.42969-2.6055 0.72656-1.3633 0.29297-2.6211 0.52734-2.793 0.52734s-0.60547-0.25391-0.96484-0.54297c-0.9375-0.77344-8.4492-8.543-8.4492-8.7383 0-0.23437 3.5586-3.6172 3.7969-3.6172zm-34.859 2.3945 2.0625 2.1406c1.1328 1.1758 2.0625 2.1289 2.0625 2.168 0 0-0.25781 0.29297-0.57031 0.61719l-0.57031 0.58203-2.4258-1.0234c-1.332-0.5625-2.4961-1.0977-2.582-1.1836-0.082031-0.074219-0.10547-0.19531-0.097656-0.34766 0.03125-0.44922 0.46094-1.1641 1.1641-1.9219l0.95703-1.0273zm10.039 0.88672c0.17578 0 4.1602 4.1289 4.1602 4.3047 0 0.066407-0.72266 0.76953-1.6055 1.5625l-1.6055 1.4453-0.83984-0.24219c-0.88672-0.25391-2.8359-1.8711-3.5898-2.9805l-0.39844-0.58594 1.8672-1.7539c1.0273-0.96484 1.9336-1.75 2.0156-1.75zm10.141 0.59766c0.082031 0 0.51172 0.42188 0.94922 0.92578 0.4375 0.50781 1.2852 1.4805 1.8828 2.1602 0.59766 0.67969 1.0859 1.2852 1.0859 1.3516 0 0.0625-0.74609 0.80859-1.6602 1.6602-1.2188 1.1328-1.793 1.5352-2.1562 1.5352-0.375 0-0.94922-0.48828-2.3516-1.9492l-1.8555-1.9414 0.63281-0.75391c0.67969-0.80859 3.2148-2.9844 3.4688-2.9844zm9.8633 0.79297c0.26562 0 7.875 8.0234 7.875 8.2969 0 0.125-0.24219 0.28125-0.53125 0.32422-0.28906 0.054687-1.7383 0.16406-3.2188 0.24609l-2.5469 0.15234c-0.066406 0-0.13281-0.054687-0.17969-0.054687l-1.6133-1.5938c-3.1758-3.1328-3.6211-3.6094-3.6211-3.875 0.015625-0.29297 3.543-3.5156 3.8359-3.5156zm-24.812 3.3125c0-0.0625 0.25391 0.13281 0.5625 0.44141s0.52734 0.57812 0.49609 0.62109c-0.03125 0.054688-0.33984-0.054688-0.67188-0.16797-0.36328-0.13281-0.53125-0.28125-0.51562-0.4375 0 0 0.007812 0 0.015625-0.066406 0.066406-0.15234 0.11328-0.33203 0.11328-0.39062zm9.7539 0.75391c0.43359-0.10547 0.87891 0.35938 2.0938 1.6016 0.96875 0.99219 1.7656 1.8789 1.7734 1.9648 0 0.078126-0.22266 0.10156-0.50781 0.054688-0.28906-0.0625-0.86328-0.17188-1.2812-0.24609-1.3008-0.21875-3.4062-0.78125-3.6289-0.96484-0.09375-0.078124-0.14453-0.20312-0.13672-0.35156 0.015626-0.33203 0.28125-0.80078 0.75-1.2812 0.41797-0.42969 0.67578-0.69531 0.9375-0.76172zm10.23 0.60156c0.32422 0 3.7422 3.707 3.7344 4.043 0 0.20703-0.38672 0.23047-2.1484 0.089843-2.4414-0.19531-5.1055-0.53906-5.2383-0.67969v-0.054688c0.03125-0.39062 3.2578-3.4258 3.6562-3.4258z" fill="#1a4531"/>
  <path d="m399.61 133.13c-3.5508 3.625-5.7109 8.3867-6.1523 13.477 1.1719 0.21875 2.5625 0.18359 4.1758-0.14453 3.0391-0.73438 6.6641-2.6367 9.8867-5.6016 3.2227-2.9648 5.4219-6.3711 6.3359-9.375 0.62109-1.9414 0.69531-3.625 0.32813-4.9453-5.4922 0.29297-10.691 2.6367-14.574 6.5898zm-6.1875 16.625c0.625 10.473 8.4961 19.043 18.859 20.508 0.074218-1.3555 0.33203-2.7812 0.76953-4.2109 1.2812-4.1367 4.1016-8.4961 8.168-12.23s8.6055-6.1875 12.855-7.1406c1.0625-0.25781 2.125-0.36328 3.1875-0.40234-1.0977-10.473-9.375-18.711-19.848-19.699 0.29297 1.832 0.074219 3.8438-0.55078 5.8203-1.1719 3.6641-3.6641 7.4688-7.2148 10.766-3.5898 3.2969-7.582 5.4922-11.316 6.3359-1.6836 0.36719-3.3672 0.47656-4.9062 0.25781zm29.223 6.9922c-3.332 3.2578-5.6016 6.957-6.6289 10.219-0.36719 1.2812-0.58594 2.4531-0.62109 3.5156 11.535-0.042969 21.094-8.8984 21.934-20.398v-0.69531c-0.80469 0.039063-1.6836 0.14453-2.6016 0.32812-3.5508 0.80469-7.6914 3.0039-11.387 6.4102-0.25781 0.21875-0.47656 0.4375-0.69531 0.62109z" fill="#1a4531"/>
 </g>
</svg>
